solid OpenSCAD_Model
  facet normal 0 0 -1
    outer loop
      vertex 13.5215 -13.5801 2
      vertex -13.5215 13.5801 2
      vertex 18.5215 -4.91987 2
    endloop
  endfacet
  facet normal 0 -0 -1
    outer loop
      vertex -13.5215 13.5801 2
      vertex 13.5215 -13.5801 2
      vertex -18.5215 4.91987 2
    endloop
  endfacet
  facet normal -0.5 -0.866026 0
    outer loop
      vertex -17.4186 15.8301 7
      vertex -13.9545 13.8301 4
      vertex -13.9545 13.8301 7
    endloop
  endfacet
  facet normal -0.500001 -0.866025 0
    outer loop
      vertex -13.9545 13.8301 4
      vertex -13.5215 13.5801 2
      vertex -13.5215 13.5801 4
    endloop
  endfacet
  facet normal -0.5 -0.866026 0
    outer loop
      vertex -17.4186 15.8301 0
      vertex -13.9545 13.8301 4
      vertex -17.4186 15.8301 7
    endloop
  endfacet
  facet normal -0.5 -0.866025 2.64402e-007
    outer loop
      vertex -13.5215 13.5801 2
      vertex -17.4186 15.8301 0
      vertex 18.5215 -4.91987 2
    endloop
  endfacet
  facet normal -0.5 -0.866025 2.55536e-007
    outer loop
      vertex -13.9545 13.8301 4
      vertex -17.4186 15.8301 0
      vertex -13.5215 13.5801 2
    endloop
  endfacet
  facet normal -0.499999 -0.866026 -0
    outer loop
      vertex 18.5215 -4.91987 4
      vertex 18.5215 -4.91987 2
      vertex 18.9545 -5.16987 4
    endloop
  endfacet
  facet normal -0.5 -0.866025 0
    outer loop
      vertex 18.9545 -5.16987 4
      vertex 22.4186 -7.16987 7
      vertex 18.9545 -5.16987 7
    endloop
  endfacet
  facet normal -0.5 -0.866025 2.91574e-007
    outer loop
      vertex 22.4186 -7.16987 0
      vertex 18.9545 -5.16987 4
      vertex 18.5215 -4.91987 2
    endloop
  endfacet
  facet normal -0.5 -0.866025 0
    outer loop
      vertex 18.9545 -5.16987 4
      vertex 22.4186 -7.16987 0
      vertex 22.4186 -7.16987 7
    endloop
  endfacet
  facet normal -0.5 -0.866025 7.34328e-008
    outer loop
      vertex 22.4186 -7.16987 0
      vertex 18.5215 -4.91987 2
      vertex -17.4186 15.8301 0
    endloop
  endfacet
  facet normal 0 0 -1
    outer loop
      vertex -13.2791 -23 0
      vertex 17.4186 -15.8301 0
      vertex 13.2791 -23 0
    endloop
  endfacet
  facet normal 0 0 -1
    outer loop
      vertex -13.2791 -23 0
      vertex -22.4186 7.16987 0
      vertex 17.4186 -15.8301 0
    endloop
  endfacet
  facet normal 0 -0 -1
    outer loop
      vertex -22.4186 7.16987 0
      vertex -13.2791 -23 0
      vertex -26.5581 0 0
    endloop
  endfacet
  facet normal 0 0 -1
    outer loop
      vertex 22.4186 -7.16987 0
      vertex 13.2791 23 0
      vertex 26.5581 0 0
    endloop
  endfacet
  facet normal 0 0 -1
    outer loop
      vertex -17.4186 15.8301 0
      vertex 13.2791 23 0
      vertex 22.4186 -7.16987 0
    endloop
  endfacet
  facet normal -0 0 -1
    outer loop
      vertex 13.2791 23 0
      vertex -17.4186 15.8301 0
      vertex -13.279 23 0
    endloop
  endfacet
  facet normal 0 0 -1
    outer loop
      vertex -13.279 23 0
      vertex -17.4186 15.8301 0
      vertex -13.2791 23 0
    endloop
  endfacet
  facet normal 0.5 0.866025 0
    outer loop
      vertex 17.4186 -15.8301 7
      vertex 13.9545 -13.8301 4
      vertex 13.9545 -13.8301 7
    endloop
  endfacet
  facet normal 0.5 0.866026 0
    outer loop
      vertex 13.9545 -13.8301 4
      vertex 13.5215 -13.5801 2
      vertex 13.5215 -13.5801 4
    endloop
  endfacet
  facet normal 0.5 0.866025 -0
    outer loop
      vertex 17.4186 -15.8301 0
      vertex 13.9545 -13.8301 4
      vertex 17.4186 -15.8301 7
    endloop
  endfacet
  facet normal 0.5 0.866025 -2.07834e-008
    outer loop
      vertex 13.5215 -13.5801 2
      vertex 17.4186 -15.8301 0
      vertex -18.5215 4.91987 2
    endloop
  endfacet
  facet normal 0.5 0.866025 -1.0255e-007
    outer loop
      vertex 13.9545 -13.8301 4
      vertex 17.4186 -15.8301 0
      vertex 13.5215 -13.5801 2
    endloop
  endfacet
  facet normal 0.499999 0.866026 0
    outer loop
      vertex -18.5215 4.91987 4
      vertex -18.5215 4.91987 2
      vertex -18.9545 5.16987 4
    endloop
  endfacet
  facet normal 0.5 0.866025 -0
    outer loop
      vertex -18.9545 5.16987 4
      vertex -22.4186 7.16987 7
      vertex -18.9545 5.16987 7
    endloop
  endfacet
  facet normal 0.5 0.866025 2.40466e-007
    outer loop
      vertex -22.4186 7.16987 0
      vertex -18.9545 5.16987 4
      vertex -18.5215 4.91987 2
    endloop
  endfacet
  facet normal 0.5 0.866025 0
    outer loop
      vertex -18.9545 5.16987 4
      vertex -22.4186 7.16987 0
      vertex -22.4186 7.16987 7
    endloop
  endfacet
  facet normal 0.5 0.866025 1.03169e-007
    outer loop
      vertex -22.4186 7.16987 0
      vertex -18.5215 4.91987 2
      vertex 17.4186 -15.8301 0
    endloop
  endfacet
  facet normal -0.866025 0.5 0
    outer loop
      vertex -18.5215 4.91987 2
      vertex -13.5215 13.5801 4
      vertex -13.5215 13.5801 2
    endloop
  endfacet
  facet normal -0.866025 0.5 0
    outer loop
      vertex -13.5215 13.5801 4
      vertex -18.5215 4.91987 2
      vertex -18.5215 4.91987 4
    endloop
  endfacet
  facet normal 0.866025 -0.5 0
    outer loop
      vertex 13.5215 -13.5801 4
      vertex 18.5215 -4.91987 2
      vertex 18.5215 -4.91987 4
    endloop
  endfacet
  facet normal 0.866025 -0.5 0
    outer loop
      vertex 18.5215 -4.91987 2
      vertex 13.5215 -13.5801 4
      vertex 13.5215 -13.5801 2
    endloop
  endfacet
  facet normal -0.707107 0.707107 0
    outer loop
      vertex -13.2791 23 0
      vertex -13.279 23 7
      vertex -13.279 23 0
    endloop
  endfacet
  facet normal -0.707107 0.707107 0
    outer loop
      vertex -13.279 23 7
      vertex -13.2791 23 0
      vertex -13.2791 23 7
    endloop
  endfacet
  facet normal -0.866025 0.5 0
    outer loop
      vertex -26.5581 0 0
      vertex -22.4186 7.16987 7
      vertex -22.4186 7.16987 0
    endloop
  endfacet
  facet normal -0.866025 0.5 0
    outer loop
      vertex -22.4186 7.16987 7
      vertex -26.5581 0 0
      vertex -26.5581 0 7
    endloop
  endfacet
  facet normal -0.866025 0.5 0
    outer loop
      vertex -17.4186 15.8301 0
      vertex -13.2791 23 7
      vertex -13.2791 23 0
    endloop
  endfacet
  facet normal -0.866025 0.5 0
    outer loop
      vertex -13.2791 23 7
      vertex -17.4186 15.8301 0
      vertex -17.4186 15.8301 7
    endloop
  endfacet
  facet normal -0.866025 -0.5 0
    outer loop
      vertex -13.2791 -23 0
      vertex -26.5581 0 7
      vertex -26.5581 0 0
    endloop
  endfacet
  facet normal -0.866025 -0.5 0
    outer loop
      vertex -26.5581 0 7
      vertex -13.2791 -23 0
      vertex -13.2791 -23 7
    endloop
  endfacet
  facet normal 0 0 1
    outer loop
      vertex 26.5581 0 7
      vertex 21.9393 0 7
      vertex 22.4186 -7.16987 7
    endloop
  endfacet
  facet normal 0 0 1
    outer loop
      vertex 13.2791 23 7
      vertex 21.9393 0 7
      vertex 26.5581 0 7
    endloop
  endfacet
  facet normal 0 0 1
    outer loop
      vertex 13.2791 23 7
      vertex 10.9697 19 7
      vertex 21.9393 0 7
    endloop
  endfacet
  facet normal 0 0 1
    outer loop
      vertex 13.2791 23 7
      vertex -10.9696 19 7
      vertex 10.9697 19 7
    endloop
  endfacet
  facet normal -0 0 1
    outer loop
      vertex -13.279 23 7
      vertex -10.9696 19 7
      vertex 13.2791 23 7
    endloop
  endfacet
  facet normal -0 0 1
    outer loop
      vertex -13.2791 23 7
      vertex -10.9696 19 7
      vertex -13.279 23 7
    endloop
  endfacet
  facet normal 0 0 1
    outer loop
      vertex -10.9696 19 7
      vertex -13.2791 23 7
      vertex -10.9697 19 7
    endloop
  endfacet
  facet normal 0 0 1
    outer loop
      vertex -17.4186 15.8301 7
      vertex -10.9697 19 7
      vertex -13.2791 23 7
    endloop
  endfacet
  facet normal 0 0 1
    outer loop
      vertex -10.9697 19 7
      vertex -17.4186 15.8301 7
      vertex -13.9545 13.8301 7
    endloop
  endfacet
  facet normal 0 0 1
    outer loop
      vertex 22.4186 -7.16987 7
      vertex 21.9393 0 7
      vertex 18.9545 -5.16987 7
    endloop
  endfacet
  facet normal 0 0 1
    outer loop
      vertex -18.9545 5.16987 7
      vertex -22.4186 7.16987 7
      vertex -21.9393 0 7
    endloop
  endfacet
  facet normal 0 0 1
    outer loop
      vertex 10.9697 -19 7
      vertex 17.4186 -15.8301 7
      vertex 13.9545 -13.8301 7
    endloop
  endfacet
  facet normal 0 0 1
    outer loop
      vertex 17.4186 -15.8301 7
      vertex 10.9697 -19 7
      vertex 13.2791 -23 7
    endloop
  endfacet
  facet normal -0 0 1
    outer loop
      vertex -10.9697 -19 7
      vertex 13.2791 -23 7
      vertex 10.9697 -19 7
    endloop
  endfacet
  facet normal 0 0 1
    outer loop
      vertex -10.9697 -19 7
      vertex -13.2791 -23 7
      vertex 13.2791 -23 7
    endloop
  endfacet
  facet normal 0 0 1
    outer loop
      vertex -21.9393 0 7
      vertex -13.2791 -23 7
      vertex -10.9697 -19 7
    endloop
  endfacet
  facet normal 0 0 1
    outer loop
      vertex -21.9393 0 7
      vertex -26.5581 0 7
      vertex -13.2791 -23 7
    endloop
  endfacet
  facet normal 0 0 1
    outer loop
      vertex -26.5581 0 7
      vertex -21.9393 0 7
      vertex -22.4186 7.16987 7
    endloop
  endfacet
  facet normal 0 -1 0
    outer loop
      vertex -13.2791 -23 0
      vertex 13.2791 -23 7
      vertex -13.2791 -23 7
    endloop
  endfacet
  facet normal 0 -1 -0
    outer loop
      vertex 13.2791 -23 7
      vertex -13.2791 -23 0
      vertex 13.2791 -23 0
    endloop
  endfacet
  facet normal 0.866025 -0.5 0
    outer loop
      vertex 22.4186 -7.16987 7
      vertex 26.5581 0 0
      vertex 26.5581 0 7
    endloop
  endfacet
  facet normal 0.866025 -0.5 0
    outer loop
      vertex 26.5581 0 0
      vertex 22.4186 -7.16987 7
      vertex 22.4186 -7.16987 0
    endloop
  endfacet
  facet normal 0.866025 -0.5 0
    outer loop
      vertex 13.2791 -23 7
      vertex 17.4186 -15.8301 0
      vertex 17.4186 -15.8301 7
    endloop
  endfacet
  facet normal 0.866025 -0.5 0
    outer loop
      vertex 17.4186 -15.8301 0
      vertex 13.2791 -23 7
      vertex 13.2791 -23 0
    endloop
  endfacet
  facet normal 0 1 -0
    outer loop
      vertex 13.2791 23 0
      vertex -13.279 23 7
      vertex 13.2791 23 7
    endloop
  endfacet
  facet normal 0 1 0
    outer loop
      vertex -13.279 23 7
      vertex 13.2791 23 0
      vertex -13.279 23 0
    endloop
  endfacet
  facet normal 0.866025 0.5 0
    outer loop
      vertex 26.5581 0 7
      vertex 13.2791 23 0
      vertex 13.2791 23 7
    endloop
  endfacet
  facet normal 0.866025 0.5 0
    outer loop
      vertex 13.2791 23 0
      vertex 26.5581 0 7
      vertex 26.5581 0 0
    endloop
  endfacet
  facet normal 0 0 1
    outer loop
      vertex 21.9393 0 4
      vertex 18.5215 -4.91987 4
      vertex 18.9545 -5.16987 4
    endloop
  endfacet
  facet normal -0 0 1
    outer loop
      vertex -13.5215 13.5801 4
      vertex 18.5215 -4.91987 4
      vertex 10.9697 19 4
    endloop
  endfacet
  facet normal 0 0 1
    outer loop
      vertex 10.9697 19 4
      vertex 18.5215 -4.91987 4
      vertex 21.9393 0 4
    endloop
  endfacet
  facet normal 0 0 1
    outer loop
      vertex 13.5215 -13.5801 4
      vertex 10.9697 -19 4
      vertex 13.9545 -13.8301 4
    endloop
  endfacet
  facet normal 0 0 1
    outer loop
      vertex 18.5215 -4.91987 4
      vertex -13.5215 13.5801 4
      vertex 13.5215 -13.5801 4
    endloop
  endfacet
  facet normal 0 0 1
    outer loop
      vertex -13.5215 13.5801 4
      vertex 10.9697 19 4
      vertex -10.9696 19 4
    endloop
  endfacet
  facet normal 0 0 1
    outer loop
      vertex -13.5215 13.5801 4
      vertex -10.9696 19 4
      vertex -10.9697 19 4
    endloop
  endfacet
  facet normal -0 0 1
    outer loop
      vertex -18.5215 4.91987 4
      vertex 13.5215 -13.5801 4
      vertex -13.5215 13.5801 4
    endloop
  endfacet
  facet normal 0 -0 1
    outer loop
      vertex -10.9697 -19 4
      vertex 13.5215 -13.5801 4
      vertex -18.5215 4.91987 4
    endloop
  endfacet
  facet normal 0 -0 1
    outer loop
      vertex -13.5215 13.5801 4
      vertex -10.9697 19 4
      vertex -13.9545 13.8301 4
    endloop
  endfacet
  facet normal 0 0 1
    outer loop
      vertex 13.5215 -13.5801 4
      vertex -10.9697 -19 4
      vertex 10.9697 -19 4
    endloop
  endfacet
  facet normal 0 0 1
    outer loop
      vertex -21.9393 0 4
      vertex -18.5215 4.91987 4
      vertex -18.9545 5.16987 4
    endloop
  endfacet
  facet normal 0 0 1
    outer loop
      vertex -18.5215 4.91987 4
      vertex -21.9393 0 4
      vertex -10.9697 -19 4
    endloop
  endfacet
  facet normal 0 1 -0
    outer loop
      vertex 10.9697 -19 4
      vertex -10.9697 -19 7
      vertex 10.9697 -19 7
    endloop
  endfacet
  facet normal 0 1 0
    outer loop
      vertex -10.9697 -19 7
      vertex 10.9697 -19 4
      vertex -10.9697 -19 4
    endloop
  endfacet
  facet normal 0.866025 -0.5 0
    outer loop
      vertex -21.9393 0 7
      vertex -18.9545 5.16987 4
      vertex -18.9545 5.16987 7
    endloop
  endfacet
  facet normal 0.866025 -0.5 0
    outer loop
      vertex -18.9545 5.16987 4
      vertex -21.9393 0 7
      vertex -21.9393 0 4
    endloop
  endfacet
  facet normal 0.866025 -0.5 0
    outer loop
      vertex -13.9545 13.8301 7
      vertex -10.9697 19 4
      vertex -10.9697 19 7
    endloop
  endfacet
  facet normal 0.866025 -0.5 0
    outer loop
      vertex -10.9697 19 4
      vertex -13.9545 13.8301 7
      vertex -13.9545 13.8301 4
    endloop
  endfacet
  facet normal -0.866025 -0.5 0
    outer loop
      vertex 21.9393 0 4
      vertex 10.9697 19 7
      vertex 10.9697 19 4
    endloop
  endfacet
  facet normal -0.866025 -0.5 0
    outer loop
      vertex 10.9697 19 7
      vertex 21.9393 0 4
      vertex 21.9393 0 7
    endloop
  endfacet
  facet normal 0.866025 0.5 0
    outer loop
      vertex -10.9697 -19 7
      vertex -21.9393 0 4
      vertex -21.9393 0 7
    endloop
  endfacet
  facet normal 0.866025 0.5 0
    outer loop
      vertex -21.9393 0 4
      vertex -10.9697 -19 7
      vertex -10.9697 -19 4
    endloop
  endfacet
  facet normal 0 -1 0
    outer loop
      vertex -10.9696 19 4
      vertex 10.9697 19 7
      vertex -10.9696 19 7
    endloop
  endfacet
  facet normal 0 -1 -0
    outer loop
      vertex 10.9697 19 7
      vertex -10.9696 19 4
      vertex 10.9697 19 4
    endloop
  endfacet
  facet normal -0.866026 0.5 0
    outer loop
      vertex 10.9697 -19 4
      vertex 13.9545 -13.8301 7
      vertex 13.9545 -13.8301 4
    endloop
  endfacet
  facet normal -0.866026 0.5 0
    outer loop
      vertex 13.9545 -13.8301 7
      vertex 10.9697 -19 4
      vertex 10.9697 -19 7
    endloop
  endfacet
  facet normal -0.866026 0.5 0
    outer loop
      vertex 18.9545 -5.16987 4
      vertex 21.9393 0 7
      vertex 21.9393 0 4
    endloop
  endfacet
  facet normal -0.866026 0.5 0
    outer loop
      vertex 21.9393 0 7
      vertex 18.9545 -5.16987 4
      vertex 18.9545 -5.16987 7
    endloop
  endfacet
  facet normal 0.707107 -0.707107 0
    outer loop
      vertex -10.9697 19 7
      vertex -10.9696 19 4
      vertex -10.9696 19 7
    endloop
  endfacet
  facet normal 0.707107 -0.707107 0
    outer loop
      vertex -10.9696 19 4
      vertex -10.9697 19 7
      vertex -10.9697 19 4
    endloop
  endfacet
endsolid OpenSCAD_Model
