solid OpenSCAD_Model
  facet normal 0 0 -1
    outer loop
      vertex 12.7017 -22 0
      vertex 12.7017 22 0
      vertex 25.4034 0 0
    endloop
  endfacet
  facet normal 0 0 -1
    outer loop
      vertex 12.7017 -22 0
      vertex -12.7017 22 0
      vertex 12.7017 22 0
    endloop
  endfacet
  facet normal 0 0 -1
    outer loop
      vertex 12.7017 -22 0
      vertex -12.7017 -22 0
      vertex -12.7017 22 0
    endloop
  endfacet
  facet normal 0 0 -1
    outer loop
      vertex -25.4034 0 0
      vertex -12.7017 22 0
      vertex -12.7017 -22 0
    endloop
  endfacet
  facet normal -0.866026 0.5 0
    outer loop
      vertex -25.4034 0 0
      vertex -12.7017 22 6
      vertex -12.7017 22 0
    endloop
  endfacet
  facet normal -0.866026 0.5 0
    outer loop
      vertex -12.7017 22 6
      vertex -25.4034 0 0
      vertex -25.4034 0 6
    endloop
  endfacet
  facet normal -0.866026 -0.5 0
    outer loop
      vertex -12.7017 -22 0
      vertex -25.4034 0 6
      vertex -25.4034 0 0
    endloop
  endfacet
  facet normal -0.866026 -0.5 0
    outer loop
      vertex -25.4034 0 6
      vertex -12.7017 -22 0
      vertex -12.7017 -22 6
    endloop
  endfacet
  facet normal 0 0 1
    outer loop
      vertex 12.7017 22 6
      vertex 21.9393 0 6
      vertex 25.4034 0 6
    endloop
  endfacet
  facet normal 0 0 1
    outer loop
      vertex 12.7017 22 6
      vertex 10.9697 19 6
      vertex 21.9393 0 6
    endloop
  endfacet
  facet normal 0 0 1
    outer loop
      vertex 12.7017 22 6
      vertex -10.9696 19 6
      vertex 10.9697 19 6
    endloop
  endfacet
  facet normal -0 0 1
    outer loop
      vertex -12.7017 22 6
      vertex -10.9696 19 6
      vertex 12.7017 22 6
    endloop
  endfacet
  facet normal 0 0 1
    outer loop
      vertex -10.9696 19 6
      vertex -12.7017 22 6
      vertex -10.9697 19 6
    endloop
  endfacet
  facet normal 0 0 1
    outer loop
      vertex -12.7017 22 6
      vertex -21.9393 0 6
      vertex -10.9697 19 6
    endloop
  endfacet
  facet normal 0 -0 1
    outer loop
      vertex -21.9393 0 6
      vertex -12.7017 22 6
      vertex -25.4034 0 6
    endloop
  endfacet
  facet normal -0 0 1
    outer loop
      vertex 21.9393 0 6
      vertex 12.7017 -22 6
      vertex 25.4034 0 6
    endloop
  endfacet
  facet normal -0 0 1
    outer loop
      vertex 10.9697 -19 6
      vertex 12.7017 -22 6
      vertex 21.9393 0 6
    endloop
  endfacet
  facet normal -0 0 1
    outer loop
      vertex -10.9697 -19 6
      vertex 12.7017 -22 6
      vertex 10.9697 -19 6
    endloop
  endfacet
  facet normal 0 0 1
    outer loop
      vertex -10.9697 -19 6
      vertex -12.7017 -22 6
      vertex 12.7017 -22 6
    endloop
  endfacet
  facet normal 0 0 1
    outer loop
      vertex -21.9393 0 6
      vertex -12.7017 -22 6
      vertex -10.9697 -19 6
    endloop
  endfacet
  facet normal 0 0 1
    outer loop
      vertex -12.7017 -22 6
      vertex -21.9393 0 6
      vertex -25.4034 0 6
    endloop
  endfacet
  facet normal 0.866026 -0.5 0
    outer loop
      vertex 12.7017 -22 6
      vertex 25.4034 0 0
      vertex 25.4034 0 6
    endloop
  endfacet
  facet normal 0.866026 -0.5 0
    outer loop
      vertex 25.4034 0 0
      vertex 12.7017 -22 6
      vertex 12.7017 -22 0
    endloop
  endfacet
  facet normal 0 -1 0
    outer loop
      vertex -12.7017 -22 0
      vertex 12.7017 -22 6
      vertex -12.7017 -22 6
    endloop
  endfacet
  facet normal 0 -1 -0
    outer loop
      vertex 12.7017 -22 6
      vertex -12.7017 -22 0
      vertex 12.7017 -22 0
    endloop
  endfacet
  facet normal 0 1 -0
    outer loop
      vertex 12.7017 22 0
      vertex -12.7017 22 6
      vertex 12.7017 22 6
    endloop
  endfacet
  facet normal 0 1 0
    outer loop
      vertex -12.7017 22 6
      vertex 12.7017 22 0
      vertex -12.7017 22 0
    endloop
  endfacet
  facet normal 0.866026 0.5 0
    outer loop
      vertex 25.4034 0 6
      vertex 12.7017 22 0
      vertex 12.7017 22 6
    endloop
  endfacet
  facet normal 0.866026 0.5 0
    outer loop
      vertex 12.7017 22 0
      vertex 25.4034 0 6
      vertex 25.4034 0 0
    endloop
  endfacet
  facet normal 0 0 1
    outer loop
      vertex 10.9697 19 3
      vertex 10.9697 -19 3
      vertex 21.9393 0 3
    endloop
  endfacet
  facet normal 0 0 1
    outer loop
      vertex -10.9697 19 3
      vertex 10.9697 19 3
      vertex -10.9696 19 3
    endloop
  endfacet
  facet normal 0 0 1
    outer loop
      vertex 10.9697 19 3
      vertex -10.9697 19 3
      vertex 10.9697 -19 3
    endloop
  endfacet
  facet normal 0 0 1
    outer loop
      vertex -10.9697 19 3
      vertex -10.9697 -19 3
      vertex 10.9697 -19 3
    endloop
  endfacet
  facet normal 0 -0 1
    outer loop
      vertex -10.9697 -19 3
      vertex -10.9697 19 3
      vertex -21.9393 0 3
    endloop
  endfacet
  facet normal 0 1 -0
    outer loop
      vertex 10.9697 -19 3
      vertex -10.9697 -19 6
      vertex 10.9697 -19 6
    endloop
  endfacet
  facet normal 0 1 0
    outer loop
      vertex -10.9697 -19 6
      vertex 10.9697 -19 3
      vertex -10.9697 -19 3
    endloop
  endfacet
  facet normal 0.866025 -0.5 0
    outer loop
      vertex -21.9393 0 6
      vertex -10.9697 19 3
      vertex -10.9697 19 6
    endloop
  endfacet
  facet normal 0.866025 -0.5 0
    outer loop
      vertex -10.9697 19 3
      vertex -21.9393 0 6
      vertex -21.9393 0 3
    endloop
  endfacet
  facet normal -0.866025 -0.5 0
    outer loop
      vertex 21.9393 0 3
      vertex 10.9697 19 6
      vertex 10.9697 19 3
    endloop
  endfacet
  facet normal -0.866025 -0.5 0
    outer loop
      vertex 10.9697 19 6
      vertex 21.9393 0 3
      vertex 21.9393 0 6
    endloop
  endfacet
  facet normal 0.866025 0.5 0
    outer loop
      vertex -10.9697 -19 6
      vertex -21.9393 0 3
      vertex -21.9393 0 6
    endloop
  endfacet
  facet normal 0.866025 0.5 0
    outer loop
      vertex -21.9393 0 3
      vertex -10.9697 -19 6
      vertex -10.9697 -19 3
    endloop
  endfacet
  facet normal 0 -1 0
    outer loop
      vertex -10.9696 19 3
      vertex 10.9697 19 6
      vertex -10.9696 19 6
    endloop
  endfacet
  facet normal 0 -1 -0
    outer loop
      vertex 10.9697 19 6
      vertex -10.9696 19 3
      vertex 10.9697 19 3
    endloop
  endfacet
  facet normal -0.866025 0.5 0
    outer loop
      vertex 10.9697 -19 3
      vertex 21.9393 0 6
      vertex 21.9393 0 3
    endloop
  endfacet
  facet normal -0.866025 0.5 0
    outer loop
      vertex 21.9393 0 6
      vertex 10.9697 -19 3
      vertex 10.9697 -19 6
    endloop
  endfacet
  facet normal 0.707107 -0.707107 0
    outer loop
      vertex -10.9697 19 6
      vertex -10.9696 19 3
      vertex -10.9696 19 6
    endloop
  endfacet
  facet normal 0.707107 -0.707107 0
    outer loop
      vertex -10.9696 19 3
      vertex -10.9697 19 6
      vertex -10.9697 19 3
    endloop
  endfacet
endsolid OpenSCAD_Model
