solid OpenSCAD_Model
  facet normal -0.866025 -0.5 0
    outer loop
      vertex -14.6064 -6.70096 0
      vertex -16.1064 -4.10289 10
      vertex -16.1064 -4.10289 0
    endloop
  endfacet
  facet normal -0.866025 -0.5 0
    outer loop
      vertex -16.1064 -4.10289 10
      vertex -14.6064 -6.70096 0
      vertex -14.6064 -6.70096 10
    endloop
  endfacet
  facet normal 0 0 1
    outer loop
      vertex -19.0795 4.95336 10
      vertex -17.4648 0 10
      vertex -15.7236 3.01587 10
    endloop
  endfacet
  facet normal 0 0 1
    outer loop
      vertex -21.9393 0 10
      vertex -17.4648 0 10
      vertex -19.0795 4.95336 10
    endloop
  endfacet
  facet normal 0 0 1
    outer loop
      vertex -17.4648 0 10
      vertex -21.9393 0 10
      vertex -18.7045 -5.60288 10
    endloop
  endfacet
  facet normal 0 0 1
    outer loop
      vertex 8.73242 -15.125 10
      vertex 1.5 -16 10
      vertex 4.5 -16 10
    endloop
  endfacet
  facet normal 0 0 1
    outer loop
      vertex 1.5 -16 10
      vertex -1.5 -16 10
      vertex 1.5 -19 10
    endloop
  endfacet
  facet normal 0 0 1
    outer loop
      vertex 8.73242 -15.125 10
      vertex -1.5 -16 10
      vertex 1.5 -16 10
    endloop
  endfacet
  facet normal -0 0 1
    outer loop
      vertex -8.73242 -15.125 10
      vertex -1.5 -16 10
      vertex 8.73242 -15.125 10
    endloop
  endfacet
  facet normal 0 0 1
    outer loop
      vertex -4.5 -16 10
      vertex -7.82596 -16.555 10
      vertex -4.5 -19 10
    endloop
  endfacet
  facet normal 0 0 1
    outer loop
      vertex -1.5 -16 10
      vertex -8.73242 -15.125 10
      vertex -4.5 -16 10
    endloop
  endfacet
  facet normal 0 0 1
    outer loop
      vertex -8.73242 -15.125 10
      vertex -7.82596 -16.555 10
      vertex -4.5 -16 10
    endloop
  endfacet
  facet normal 0 0 1
    outer loop
      vertex -8.73242 -15.125 10
      vertex -10.424 -15.055 10
      vertex -7.82596 -16.555 10
    endloop
  endfacet
  facet normal 0 0 1
    outer loop
      vertex -8.73242 -15.125 10
      vertex -11.6064 -11.8971 10
      vertex -10.424 -15.055 10
    endloop
  endfacet
  facet normal 0 0 1
    outer loop
      vertex -8.73242 -15.125 10
      vertex -13.1064 -9.29904 10
      vertex -11.6064 -11.8971 10
    endloop
  endfacet
  facet normal 0 0 1
    outer loop
      vertex -8.73242 -15.125 10
      vertex -14.6064 -6.70096 10
      vertex -13.1064 -9.29904 10
    endloop
  endfacet
  facet normal 0 0 1
    outer loop
      vertex -17.4648 0 10
      vertex -14.6064 -6.70096 10
      vertex -8.73242 -15.125 10
    endloop
  endfacet
  facet normal 0 0 1
    outer loop
      vertex -14.6064 -6.70096 10
      vertex -17.4648 0 10
      vertex -16.1064 -4.10289 10
    endloop
  endfacet
  facet normal 0 0 1
    outer loop
      vertex -16.1064 -4.10289 10
      vertex -17.4648 0 10
      vertex -18.7045 -5.60288 10
    endloop
  endfacet
  facet normal 0 0 1
    outer loop
      vertex 8.73242 -15.125 10
      vertex 13.8295 -14.0466 10
      vertex 10.4736 -12.1091 10
    endloop
  endfacet
  facet normal 0 0 1
    outer loop
      vertex 13.8295 -14.0466 10
      vertex 8.73242 -15.125 10
      vertex 10.9697 -19 10
    endloop
  endfacet
  facet normal 0 0 1
    outer loop
      vertex 4.5 -19 10
      vertex 8.73242 -15.125 10
      vertex 4.5 -16 10
    endloop
  endfacet
  facet normal 0 0 1
    outer loop
      vertex 8.73242 -15.125 10
      vertex 4.5 -19 10
      vertex 10.9697 -19 10
    endloop
  endfacet
  facet normal 0 0 1
    outer loop
      vertex 1.5 -19 10
      vertex -1.5 -16 10
      vertex -1.5 -19 10
    endloop
  endfacet
  facet normal 0 0 1
    outer loop
      vertex -4.5 -19 10
      vertex -7.82596 -16.555 10
      vertex -9.2376 -19 10
    endloop
  endfacet
  facet normal -0 0 1
    outer loop
      vertex -14.2045 -13.3971 10
      vertex -10.424 -15.055 10
      vertex -11.6064 -11.8971 10
    endloop
  endfacet
  facet normal 0 0 1
    outer loop
      vertex -10.424 -15.055 10
      vertex -14.2045 -13.3971 10
      vertex -11.8357 -17.5 10
    endloop
  endfacet
  facet normal 0 0 1
    outer loop
      vertex -14.6064 -6.70096 10
      vertex -15.7045 -10.799 10
      vertex -13.1064 -9.29904 10
    endloop
  endfacet
  facet normal 0 -0 1
    outer loop
      vertex -15.7045 -10.799 10
      vertex -14.6064 -6.70096 10
      vertex -17.2045 -8.20096 10
    endloop
  endfacet
  facet normal 0 0 1
    outer loop
      vertex 1.5 19 10
      vertex -1.5 19 10
      vertex 1.5 16 10
    endloop
  endfacet
  facet normal 0 0 1
    outer loop
      vertex 9.2376 19 10
      vertex 4.5 19 10
      vertex 7.82596 16.555 10
    endloop
  endfacet
  facet normal -0 0 1
    outer loop
      vertex 10.424 15.055 10
      vertex 14.2045 13.3971 10
      vertex 11.8357 17.5 10
    endloop
  endfacet
  facet normal 0 0 1
    outer loop
      vertex 14.2045 13.3971 10
      vertex 10.424 15.055 10
      vertex 11.6064 11.8971 10
    endloop
  endfacet
  facet normal 0 0 1
    outer loop
      vertex 15.7045 10.799 10
      vertex 14.6064 6.70096 10
      vertex 17.2045 8.20096 10
    endloop
  endfacet
  facet normal 0 -0 1
    outer loop
      vertex 14.6064 6.70096 10
      vertex 15.7045 10.799 10
      vertex 13.1064 9.29904 10
    endloop
  endfacet
  facet normal -0 0 1
    outer loop
      vertex 16.1064 4.10289 10
      vertex 17.4648 0 10
      vertex 18.7045 5.60288 10
    endloop
  endfacet
  facet normal 0 0 1
    outer loop
      vertex 14.6064 6.70096 10
      vertex 17.4648 0 10
      vertex 16.1064 4.10289 10
    endloop
  endfacet
  facet normal 0 0 1
    outer loop
      vertex 13.1064 9.29904 10
      vertex 17.4648 0 10
      vertex 14.6064 6.70096 10
    endloop
  endfacet
  facet normal 0 0 1
    outer loop
      vertex 8.73242 15.125 10
      vertex 13.1064 9.29904 10
      vertex 11.6064 11.8971 10
    endloop
  endfacet
  facet normal 0 0 1
    outer loop
      vertex 13.1064 9.29904 10
      vertex 8.73242 15.125 10
      vertex 17.4648 0 10
    endloop
  endfacet
  facet normal 0 0 1
    outer loop
      vertex 10.424 15.055 10
      vertex 8.73242 15.125 10
      vertex 11.6064 11.8971 10
    endloop
  endfacet
  facet normal 0 0 1
    outer loop
      vertex 7.82596 16.555 10
      vertex 8.73242 15.125 10
      vertex 10.424 15.055 10
    endloop
  endfacet
  facet normal 0 0 1
    outer loop
      vertex 4.5 16 10
      vertex 7.82596 16.555 10
      vertex 4.5 19 10
    endloop
  endfacet
  facet normal 0 0 1
    outer loop
      vertex 7.82596 16.555 10
      vertex 4.5 16 10
      vertex 8.73242 15.125 10
    endloop
  endfacet
  facet normal 0 0 1
    outer loop
      vertex 1.5 16 10
      vertex 8.73242 15.125 10
      vertex 4.5 16 10
    endloop
  endfacet
  facet normal 0 0 1
    outer loop
      vertex -1.5 16 10
      vertex 1.5 16 10
      vertex -1.5 19 10
    endloop
  endfacet
  facet normal -0 0 1
    outer loop
      vertex -1.5 16 10
      vertex 8.73242 15.125 10
      vertex 1.5 16 10
    endloop
  endfacet
  facet normal 0 0 1
    outer loop
      vertex -8.73241 15.125 10
      vertex -1.5 16 10
      vertex -4.5 16 10
    endloop
  endfacet
  facet normal 0 0 1
    outer loop
      vertex -1.5 16 10
      vertex -8.73241 15.125 10
      vertex 8.73242 15.125 10
    endloop
  endfacet
  facet normal 0 0 1
    outer loop
      vertex 17.4648 0 10
      vertex 21.9393 0 10
      vertex 18.7045 5.60288 10
    endloop
  endfacet
  facet normal 0 0 1
    outer loop
      vertex 21.9393 0 10
      vertex 17.4648 0 10
      vertex 19.0795 -4.95336 10
    endloop
  endfacet
  facet normal 0 0 1
    outer loop
      vertex 19.0795 -4.95336 10
      vertex 17.4648 0 10
      vertex 15.7236 -3.01587 10
    endloop
  endfacet
  facet normal 0 0 1
    outer loop
      vertex -4.5 19 10
      vertex -8.73241 15.125 10
      vertex -4.5 16 10
    endloop
  endfacet
  facet normal -0 0 1
    outer loop
      vertex -10.9696 19 10
      vertex -8.73241 15.125 10
      vertex -4.5 19 10
    endloop
  endfacet
  facet normal -0 0 1
    outer loop
      vertex -10.9697 19 10
      vertex -8.73241 15.125 10
      vertex -10.9696 19 10
    endloop
  endfacet
  facet normal 0 0 1
    outer loop
      vertex -8.73241 15.125 10
      vertex -10.9697 19 10
      vertex -8.73242 15.125 10
    endloop
  endfacet
  facet normal 0 0 1
    outer loop
      vertex -13.8295 14.0466 10
      vertex -8.73242 15.125 10
      vertex -10.9697 19 10
    endloop
  endfacet
  facet normal 0 0 1
    outer loop
      vertex -8.73242 15.125 10
      vertex -13.8295 14.0466 10
      vertex -10.4736 12.1091 10
    endloop
  endfacet
  facet normal 0.5 -0.866025 0
    outer loop
      vertex -18.7045 -5.60288 0
      vertex -16.1064 -4.10289 10
      vertex -18.7045 -5.60288 10
    endloop
  endfacet
  facet normal 0.5 -0.866025 0
    outer loop
      vertex -16.1064 -4.10289 10
      vertex -18.7045 -5.60288 0
      vertex -16.1064 -4.10289 0
    endloop
  endfacet
  facet normal 0 0 -1
    outer loop
      vertex -15.7045 -10.799 0
      vertex -14.6064 -6.70096 0
      vertex -13.1064 -9.29904 0
    endloop
  endfacet
  facet normal 0 0 -1
    outer loop
      vertex -14.6064 -6.70096 0
      vertex -15.7045 -10.799 0
      vertex -17.2045 -8.20096 0
    endloop
  endfacet
  facet normal 0 0 -1
    outer loop
      vertex -14.2045 -13.3971 0
      vertex -10.424 -15.055 0
      vertex -11.8357 -17.5 0
    endloop
  endfacet
  facet normal 0 0 -1
    outer loop
      vertex -10.424 -15.055 0
      vertex -14.2045 -13.3971 0
      vertex -11.6064 -11.8971 0
    endloop
  endfacet
  facet normal 0 0 -1
    outer loop
      vertex -4.5 -19 0
      vertex -7.82596 -16.555 0
      vertex -4.5 -16 0
    endloop
  endfacet
  facet normal 0 -0 -1
    outer loop
      vertex -7.82596 -16.555 0
      vertex -4.5 -19 0
      vertex -9.2376 -19 0
    endloop
  endfacet
  facet normal 0 0 -1
    outer loop
      vertex 1.5 -19 0
      vertex -1.5 -19 0
      vertex 1.5 -16 0
    endloop
  endfacet
  facet normal 0 0 -1
    outer loop
      vertex 4.5 -16 0
      vertex 10.9697 -19 0
      vertex 4.5 -19 0
    endloop
  endfacet
  facet normal 0 0 -1
    outer loop
      vertex 10.9697 -19 0
      vertex 4.5 -16 0
      vertex 13.8295 -14.0466 0
    endloop
  endfacet
  facet normal 0 0 -1
    outer loop
      vertex -16.1064 -4.10289 0
      vertex 4.5 -16 0
      vertex 1.5 -16 0
    endloop
  endfacet
  facet normal 0 0 -1
    outer loop
      vertex -1.5 -16 0
      vertex 1.5 -16 0
      vertex -1.5 -19 0
    endloop
  endfacet
  facet normal 0 0 -1
    outer loop
      vertex -14.6064 -6.70096 0
      vertex 1.5 -16 0
      vertex -1.5 -16 0
    endloop
  endfacet
  facet normal 0 0 -1
    outer loop
      vertex -13.1064 -9.29904 0
      vertex -1.5 -16 0
      vertex -4.5 -16 0
    endloop
  endfacet
  facet normal 0 0 -1
    outer loop
      vertex -10.424 -15.055 0
      vertex -4.5 -16 0
      vertex -7.82596 -16.555 0
    endloop
  endfacet
  facet normal 0 0 -1
    outer loop
      vertex -11.6064 -11.8971 0
      vertex -4.5 -16 0
      vertex -10.424 -15.055 0
    endloop
  endfacet
  facet normal 0 0 -1
    outer loop
      vertex -13.1064 -9.29904 0
      vertex -4.5 -16 0
      vertex -11.6064 -11.8971 0
    endloop
  endfacet
  facet normal 0 0 -1
    outer loop
      vertex -1.5 -16 0
      vertex -13.1064 -9.29904 0
      vertex -14.6064 -6.70096 0
    endloop
  endfacet
  facet normal 0 0 -1
    outer loop
      vertex -16.1064 -4.10289 0
      vertex 1.5 -16 0
      vertex -14.6064 -6.70096 0
    endloop
  endfacet
  facet normal 0 0 -1
    outer loop
      vertex 4.5 -16 0
      vertex -16.1064 -4.10289 0
      vertex 13.8295 -14.0466 0
    endloop
  endfacet
  facet normal 0 0 -1
    outer loop
      vertex -16.1064 -4.10289 0
      vertex -19.0795 4.95336 0
      vertex 13.8295 -14.0466 0
    endloop
  endfacet
  facet normal 0 0 -1
    outer loop
      vertex -21.9393 0 0
      vertex -16.1064 -4.10289 0
      vertex -18.7045 -5.60288 0
    endloop
  endfacet
  facet normal 0 0 -1
    outer loop
      vertex -16.1064 -4.10289 0
      vertex -21.9393 0 0
      vertex -19.0795 4.95336 0
    endloop
  endfacet
  facet normal 0 0 -1
    outer loop
      vertex 16.1064 4.10289 0
      vertex 21.9393 0 0
      vertex 19.0795 -4.95336 0
    endloop
  endfacet
  facet normal 0 0 -1
    outer loop
      vertex 21.9393 0 0
      vertex 16.1064 4.10289 0
      vertex 18.7045 5.60288 0
    endloop
  endfacet
  facet normal 0 0 -1
    outer loop
      vertex -4.5 16 0
      vertex 16.1064 4.10289 0
      vertex 19.0795 -4.95336 0
    endloop
  endfacet
  facet normal 0 0 -1
    outer loop
      vertex 16.1064 4.10289 0
      vertex -4.5 16 0
      vertex 14.6064 6.70096 0
    endloop
  endfacet
  facet normal 0 0 -1
    outer loop
      vertex 14.6064 6.70096 0
      vertex -1.5 16 0
      vertex 13.1064 9.29904 0
    endloop
  endfacet
  facet normal 0 0 -1
    outer loop
      vertex 11.6064 11.8971 0
      vertex 7.82596 16.555 0
      vertex 10.424 15.055 0
    endloop
  endfacet
  facet normal -0 -0 -1
    outer loop
      vertex 1.5 16 0
      vertex 13.1064 9.29904 0
      vertex -1.5 16 0
    endloop
  endfacet
  facet normal 0 0 -1
    outer loop
      vertex 11.6064 11.8971 0
      vertex 4.5 16 0
      vertex 7.82596 16.555 0
    endloop
  endfacet
  facet normal 0 0 -1
    outer loop
      vertex 11.6064 11.8971 0
      vertex 1.5 16 0
      vertex 4.5 16 0
    endloop
  endfacet
  facet normal 0 0 -1
    outer loop
      vertex 1.5 16 0
      vertex -1.5 16 0
      vertex 1.5 19 0
    endloop
  endfacet
  facet normal 0 0 -1
    outer loop
      vertex 13.1064 9.29904 0
      vertex 1.5 16 0
      vertex 11.6064 11.8971 0
    endloop
  endfacet
  facet normal 0 0 -1
    outer loop
      vertex 14.6064 6.70096 0
      vertex -4.5 16 0
      vertex -1.5 16 0
    endloop
  endfacet
  facet normal 0 0 -1
    outer loop
      vertex -4.5 16 0
      vertex -10.9696 19 0
      vertex -4.5 19 0
    endloop
  endfacet
  facet normal 0 0 -1
    outer loop
      vertex -13.8295 14.0466 0
      vertex -4.5 16 0
      vertex 19.0795 -4.95336 0
    endloop
  endfacet
  facet normal 0 -0 -1
    outer loop
      vertex -10.9697 19 0
      vertex -4.5 16 0
      vertex -13.8295 14.0466 0
    endloop
  endfacet
  facet normal 0 0 -1
    outer loop
      vertex -4.5 16 0
      vertex -10.9697 19 0
      vertex -10.9696 19 0
    endloop
  endfacet
  facet normal 0 0 -1
    outer loop
      vertex 14.6064 6.70096 0
      vertex 15.7045 10.799 0
      vertex 17.2045 8.20096 0
    endloop
  endfacet
  facet normal 0 0 -1
    outer loop
      vertex 15.7045 10.799 0
      vertex 14.6064 6.70096 0
      vertex 13.1064 9.29904 0
    endloop
  endfacet
  facet normal 0 0 -1
    outer loop
      vertex 10.424 15.055 0
      vertex 14.2045 13.3971 0
      vertex 11.6064 11.8971 0
    endloop
  endfacet
  facet normal 0 0 -1
    outer loop
      vertex 14.2045 13.3971 0
      vertex 10.424 15.055 0
      vertex 11.8357 17.5 0
    endloop
  endfacet
  facet normal 0 0 -1
    outer loop
      vertex 4.5 19 0
      vertex 7.82596 16.555 0
      vertex 4.5 16 0
    endloop
  endfacet
  facet normal 0 0 -1
    outer loop
      vertex 7.82596 16.555 0
      vertex 4.5 19 0
      vertex 9.2376 19 0
    endloop
  endfacet
  facet normal -0 0 -1
    outer loop
      vertex 1.5 19 0
      vertex -1.5 16 0
      vertex -1.5 19 0
    endloop
  endfacet
  facet normal -0.5 0.866025 0
    outer loop
      vertex -14.6064 -6.70096 0
      vertex -17.2045 -8.20096 10
      vertex -14.6064 -6.70096 10
    endloop
  endfacet
  facet normal -0.5 0.866025 0
    outer loop
      vertex -17.2045 -8.20096 10
      vertex -14.6064 -6.70096 0
      vertex -17.2045 -8.20096 0
    endloop
  endfacet
  facet normal 0.866025 0.5 0
    outer loop
      vertex 16.1064 4.10289 10
      vertex 14.6064 6.70096 0
      vertex 14.6064 6.70096 10
    endloop
  endfacet
  facet normal 0.866025 0.5 0
    outer loop
      vertex 14.6064 6.70096 0
      vertex 16.1064 4.10289 10
      vertex 16.1064 4.10289 0
    endloop
  endfacet
  facet normal 0.5 -0.866025 0
    outer loop
      vertex 14.6064 6.70096 0
      vertex 17.2045 8.20096 10
      vertex 14.6064 6.70096 10
    endloop
  endfacet
  facet normal 0.5 -0.866025 0
    outer loop
      vertex 17.2045 8.20096 10
      vertex 14.6064 6.70096 0
      vertex 17.2045 8.20096 0
    endloop
  endfacet
  facet normal -0.5 0.866025 0
    outer loop
      vertex 18.7045 5.60288 0
      vertex 16.1064 4.10289 10
      vertex 18.7045 5.60288 10
    endloop
  endfacet
  facet normal -0.5 0.866025 0
    outer loop
      vertex 16.1064 4.10289 10
      vertex 18.7045 5.60288 0
      vertex 16.1064 4.10289 0
    endloop
  endfacet
  facet normal -0.866025 -0.5 0
    outer loop
      vertex -11.6064 -11.8971 0
      vertex -13.1064 -9.29904 10
      vertex -13.1064 -9.29904 0
    endloop
  endfacet
  facet normal -0.866025 -0.5 0
    outer loop
      vertex -13.1064 -9.29904 10
      vertex -11.6064 -11.8971 0
      vertex -11.6064 -11.8971 10
    endloop
  endfacet
  facet normal -0.5 0.866025 0
    outer loop
      vertex -11.6064 -11.8971 0
      vertex -14.2045 -13.3971 10
      vertex -11.6064 -11.8971 10
    endloop
  endfacet
  facet normal -0.5 0.866025 0
    outer loop
      vertex -14.2045 -13.3971 10
      vertex -11.6064 -11.8971 0
      vertex -14.2045 -13.3971 0
    endloop
  endfacet
  facet normal 0.5 -0.866025 0
    outer loop
      vertex -15.7045 -10.799 0
      vertex -13.1064 -9.29904 10
      vertex -15.7045 -10.799 10
    endloop
  endfacet
  facet normal 0.5 -0.866025 0
    outer loop
      vertex -13.1064 -9.29904 10
      vertex -15.7045 -10.799 0
      vertex -13.1064 -9.29904 0
    endloop
  endfacet
  facet normal 0.866025 0.5 0
    outer loop
      vertex 13.1064 9.29904 10
      vertex 11.6064 11.8971 0
      vertex 11.6064 11.8971 10
    endloop
  endfacet
  facet normal 0.866025 0.5 0
    outer loop
      vertex 11.6064 11.8971 0
      vertex 13.1064 9.29904 10
      vertex 13.1064 9.29904 0
    endloop
  endfacet
  facet normal 0.5 -0.866025 0
    outer loop
      vertex 11.6064 11.8971 0
      vertex 14.2045 13.3971 10
      vertex 11.6064 11.8971 10
    endloop
  endfacet
  facet normal 0.5 -0.866025 0
    outer loop
      vertex 14.2045 13.3971 10
      vertex 11.6064 11.8971 0
      vertex 14.2045 13.3971 0
    endloop
  endfacet
  facet normal -0.5 0.866025 0
    outer loop
      vertex 15.7045 10.799 0
      vertex 13.1064 9.29904 10
      vertex 15.7045 10.799 10
    endloop
  endfacet
  facet normal -0.5 0.866025 0
    outer loop
      vertex 13.1064 9.29904 10
      vertex 15.7045 10.799 0
      vertex 13.1064 9.29904 0
    endloop
  endfacet
  facet normal -3.17891e-007 -1 0
    outer loop
      vertex -4.5 -16 0
      vertex -1.5 -16 10
      vertex -4.5 -16 10
    endloop
  endfacet
  facet normal -3.17891e-007 -1 -0
    outer loop
      vertex -1.5 -16 10
      vertex -4.5 -16 0
      vertex -1.5 -16 0
    endloop
  endfacet
  facet normal 0 -1 0
    outer loop
      vertex 4.5 -19 0
      vertex 10.9697 -19 10
      vertex 4.5 -19 10
    endloop
  endfacet
  facet normal 0 -1 -0
    outer loop
      vertex 10.9697 -19 10
      vertex 4.5 -19 0
      vertex 10.9697 -19 0
    endloop
  endfacet
  facet normal 0 -1 0
    outer loop
      vertex -1.5 -19 0
      vertex 1.5 -19 10
      vertex -1.5 -19 10
    endloop
  endfacet
  facet normal 0 -1 -0
    outer loop
      vertex 1.5 -19 10
      vertex -1.5 -19 0
      vertex 1.5 -19 0
    endloop
  endfacet
  facet normal 0 -1 0
    outer loop
      vertex -9.2376 -19 0
      vertex -4.5 -19 10
      vertex -9.2376 -19 10
    endloop
  endfacet
  facet normal 0 -1 -0
    outer loop
      vertex -4.5 -19 10
      vertex -9.2376 -19 0
      vertex -4.5 -19 0
    endloop
  endfacet
  facet normal -1 0 0
    outer loop
      vertex -1.5 -19 0
      vertex -1.5 -16 10
      vertex -1.5 -16 0
    endloop
  endfacet
  facet normal -1 -0 0
    outer loop
      vertex -1.5 -16 10
      vertex -1.5 -19 0
      vertex -1.5 -19 10
    endloop
  endfacet
  facet normal 1 -0 0
    outer loop
      vertex -4.5 -19 10
      vertex -4.5 -16 0
      vertex -4.5 -16 10
    endloop
  endfacet
  facet normal 1 0 0
    outer loop
      vertex -4.5 -16 0
      vertex -4.5 -19 10
      vertex -4.5 -19 0
    endloop
  endfacet
  facet normal 0 1 -0
    outer loop
      vertex -4.5 19 0
      vertex -10.9696 19 10
      vertex -4.5 19 10
    endloop
  endfacet
  facet normal 0 1 0
    outer loop
      vertex -10.9696 19 10
      vertex -4.5 19 0
      vertex -10.9696 19 0
    endloop
  endfacet
  facet normal 0 1 -0
    outer loop
      vertex 1.5 19 0
      vertex -1.5 19 10
      vertex 1.5 19 10
    endloop
  endfacet
  facet normal 0 1 0
    outer loop
      vertex -1.5 19 10
      vertex 1.5 19 0
      vertex -1.5 19 0
    endloop
  endfacet
  facet normal 0 1 -0
    outer loop
      vertex 9.2376 19 0
      vertex 4.5 19 10
      vertex 9.2376 19 10
    endloop
  endfacet
  facet normal 0 1 0
    outer loop
      vertex 4.5 19 10
      vertex 9.2376 19 0
      vertex 4.5 19 0
    endloop
  endfacet
  facet normal 3.17891e-007 1 -0
    outer loop
      vertex 4.5 16 0
      vertex 1.5 16 10
      vertex 4.5 16 10
    endloop
  endfacet
  facet normal 3.17891e-007 1 0
    outer loop
      vertex 1.5 16 10
      vertex 4.5 16 0
      vertex 1.5 16 0
    endloop
  endfacet
  facet normal 1 -0 0
    outer loop
      vertex 1.5 16 10
      vertex 1.5 19 0
      vertex 1.5 19 10
    endloop
  endfacet
  facet normal 1 0 0
    outer loop
      vertex 1.5 19 0
      vertex 1.5 16 10
      vertex 1.5 16 0
    endloop
  endfacet
  facet normal -1 0 0
    outer loop
      vertex 4.5 16 0
      vertex 4.5 19 10
      vertex 4.5 19 0
    endloop
  endfacet
  facet normal -1 -0 0
    outer loop
      vertex 4.5 19 10
      vertex 4.5 16 0
      vertex 4.5 16 10
    endloop
  endfacet
  facet normal 0 -1 0
    outer loop
      vertex 1.5 -16 0
      vertex 4.5 -16 10
      vertex 1.5 -16 10
    endloop
  endfacet
  facet normal 0 -1 -0
    outer loop
      vertex 4.5 -16 10
      vertex 1.5 -16 0
      vertex 4.5 -16 0
    endloop
  endfacet
  facet normal 1 -0 0
    outer loop
      vertex 1.5 -19 10
      vertex 1.5 -16 0
      vertex 1.5 -16 10
    endloop
  endfacet
  facet normal 1 0 0
    outer loop
      vertex 1.5 -16 0
      vertex 1.5 -19 10
      vertex 1.5 -19 0
    endloop
  endfacet
  facet normal -1 0 0
    outer loop
      vertex 4.5 -19 0
      vertex 4.5 -16 10
      vertex 4.5 -16 0
    endloop
  endfacet
  facet normal -1 -0 0
    outer loop
      vertex 4.5 -16 10
      vertex 4.5 -19 0
      vertex 4.5 -19 10
    endloop
  endfacet
  facet normal 0 1 -0
    outer loop
      vertex -1.5 16 0
      vertex -4.5 16 10
      vertex -1.5 16 10
    endloop
  endfacet
  facet normal 0 1 0
    outer loop
      vertex -4.5 16 10
      vertex -1.5 16 0
      vertex -4.5 16 0
    endloop
  endfacet
  facet normal 1 -0 0
    outer loop
      vertex -4.5 16 10
      vertex -4.5 19 0
      vertex -4.5 19 10
    endloop
  endfacet
  facet normal 1 0 0
    outer loop
      vertex -4.5 19 0
      vertex -4.5 16 10
      vertex -4.5 16 0
    endloop
  endfacet
  facet normal -1 0 0
    outer loop
      vertex -1.5 16 0
      vertex -1.5 19 10
      vertex -1.5 19 0
    endloop
  endfacet
  facet normal -1 -0 0
    outer loop
      vertex -1.5 19 10
      vertex -1.5 16 0
      vertex -1.5 16 10
    endloop
  endfacet
  facet normal -0.5 -0.866026 0
    outer loop
      vertex -10.424 -15.055 0
      vertex -7.82596 -16.555 10
      vertex -10.424 -15.055 10
    endloop
  endfacet
  facet normal -0.5 -0.866026 -0
    outer loop
      vertex -7.82596 -16.555 10
      vertex -10.424 -15.055 0
      vertex -7.82596 -16.555 0
    endloop
  endfacet
  facet normal -0.866025 0.5 0
    outer loop
      vertex -9.2376 -19 0
      vertex -7.82596 -16.555 10
      vertex -7.82596 -16.555 0
    endloop
  endfacet
  facet normal -0.866025 0.5 0
    outer loop
      vertex -7.82596 -16.555 10
      vertex -9.2376 -19 0
      vertex -9.2376 -19 10
    endloop
  endfacet
  facet normal 0.866025 -0.5 0
    outer loop
      vertex -11.8357 -17.5 10
      vertex -10.424 -15.055 0
      vertex -10.424 -15.055 10
    endloop
  endfacet
  facet normal 0.866025 -0.5 0
    outer loop
      vertex -10.424 -15.055 0
      vertex -11.8357 -17.5 10
      vertex -11.8357 -17.5 0
    endloop
  endfacet
  facet normal 0.5 0.866026 -0
    outer loop
      vertex 10.424 15.055 0
      vertex 7.82596 16.555 10
      vertex 10.424 15.055 10
    endloop
  endfacet
  facet normal 0.5 0.866026 0
    outer loop
      vertex 7.82596 16.555 10
      vertex 10.424 15.055 0
      vertex 7.82596 16.555 0
    endloop
  endfacet
  facet normal 0.866025 -0.5 0
    outer loop
      vertex 7.82596 16.555 10
      vertex 9.2376 19 0
      vertex 9.2376 19 10
    endloop
  endfacet
  facet normal 0.866025 -0.5 0
    outer loop
      vertex 9.2376 19 0
      vertex 7.82596 16.555 10
      vertex 7.82596 16.555 0
    endloop
  endfacet
  facet normal -0.866025 0.5 0
    outer loop
      vertex 10.424 15.055 0
      vertex 11.8357 17.5 10
      vertex 11.8357 17.5 0
    endloop
  endfacet
  facet normal -0.866025 0.5 0
    outer loop
      vertex 11.8357 17.5 10
      vertex 10.424 15.055 0
      vertex 10.424 15.055 10
    endloop
  endfacet
  facet normal -0.866025 0.5 0
    outer loop
      vertex -15.3989 2.82837 1.75
      vertex -10.1489 11.9216 4
      vertex -10.1489 11.9216 1.75
    endloop
  endfacet
  facet normal -0.866025 0.5 0
    outer loop
      vertex -10.1489 11.9216 4
      vertex -15.3989 2.82837 1.75
      vertex -15.3989 2.82837 4
    endloop
  endfacet
  facet normal -0.5 -0.866025 0
    outer loop
      vertex -13.8295 14.0466 10
      vertex -10.4736 12.1091 4
      vertex -10.4736 12.1091 10
    endloop
  endfacet
  facet normal -0.499999 -0.866026 0
    outer loop
      vertex -10.4736 12.1091 4
      vertex -10.1489 11.9216 1.75
      vertex -10.1489 11.9216 4
    endloop
  endfacet
  facet normal -0.5 -0.866025 0
    outer loop
      vertex -13.8295 14.0466 0
      vertex -10.4736 12.1091 4
      vertex -13.8295 14.0466 10
    endloop
  endfacet
  facet normal -0.5 -0.866025 3.82516e-007
    outer loop
      vertex -10.1489 11.9216 1.75
      vertex -13.8295 14.0466 0
      vertex 15.3989 -2.82837 1.75
    endloop
  endfacet
  facet normal -0.5 -0.866026 -1.53883e-007
    outer loop
      vertex -10.4736 12.1091 4
      vertex -13.8295 14.0466 0
      vertex -10.1489 11.9216 1.75
    endloop
  endfacet
  facet normal -0.5 -0.866026 -0
    outer loop
      vertex 15.3989 -2.82837 4
      vertex 15.3989 -2.82837 1.75
      vertex 15.7236 -3.01587 4
    endloop
  endfacet
  facet normal -0.5 -0.866025 0
    outer loop
      vertex 15.7236 -3.01587 4
      vertex 19.0795 -4.95336 10
      vertex 15.7236 -3.01587 10
    endloop
  endfacet
  facet normal -0.5 -0.866025 6.23051e-008
    outer loop
      vertex 19.0795 -4.95336 0
      vertex 15.7236 -3.01587 4
      vertex 15.3989 -2.82837 1.75
    endloop
  endfacet
  facet normal -0.5 -0.866025 0
    outer loop
      vertex 15.7236 -3.01587 4
      vertex 19.0795 -4.95336 0
      vertex 19.0795 -4.95336 10
    endloop
  endfacet
  facet normal -0.5 -0.866025 1.62156e-007
    outer loop
      vertex 19.0795 -4.95336 0
      vertex 15.3989 -2.82837 1.75
      vertex -13.8295 14.0466 0
    endloop
  endfacet
  facet normal 0.5 0.866025 0
    outer loop
      vertex 13.8295 -14.0466 10
      vertex 10.4736 -12.1091 4
      vertex 10.4736 -12.1091 10
    endloop
  endfacet
  facet normal 0.499998 0.866026 0
    outer loop
      vertex 10.4736 -12.1091 4
      vertex 10.1489 -11.9216 1.75
      vertex 10.1489 -11.9216 4
    endloop
  endfacet
  facet normal 0.5 0.866025 -0
    outer loop
      vertex 13.8295 -14.0466 0
      vertex 10.4736 -12.1091 4
      vertex 13.8295 -14.0466 10
    endloop
  endfacet
  facet normal 0.5 0.866025 3.29069e-007
    outer loop
      vertex 10.1489 -11.9216 1.75
      vertex 13.8295 -14.0466 0
      vertex -15.3989 2.82837 1.75
    endloop
  endfacet
  facet normal 0.5 0.866026 -3.16732e-007
    outer loop
      vertex 10.4736 -12.1091 4
      vertex 13.8295 -14.0466 0
      vertex 10.1489 -11.9216 1.75
    endloop
  endfacet
  facet normal 0.499999 0.866026 0
    outer loop
      vertex -15.3989 2.82837 4
      vertex -15.3989 2.82837 1.75
      vertex -15.7236 3.01587 4
    endloop
  endfacet
  facet normal 0.5 0.866025 -0
    outer loop
      vertex -15.7236 3.01587 4
      vertex -19.0795 4.95336 10
      vertex -15.7236 3.01587 10
    endloop
  endfacet
  facet normal 0.5 0.866025 9.13013e-008
    outer loop
      vertex -19.0795 4.95336 0
      vertex -15.7236 3.01587 4
      vertex -15.3989 2.82837 1.75
    endloop
  endfacet
  facet normal 0.5 0.866025 0
    outer loop
      vertex -15.7236 3.01587 4
      vertex -19.0795 4.95336 0
      vertex -19.0795 4.95336 10
    endloop
  endfacet
  facet normal 0.5 0.866025 -2.62985e-007
    outer loop
      vertex -19.0795 4.95336 0
      vertex -15.3989 2.82837 1.75
      vertex 13.8295 -14.0466 0
    endloop
  endfacet
  facet normal 0.866025 -0.5 0
    outer loop
      vertex 10.1489 -11.9216 4
      vertex 15.3989 -2.82837 1.75
      vertex 15.3989 -2.82837 4
    endloop
  endfacet
  facet normal 0.866025 -0.5 0
    outer loop
      vertex 15.3989 -2.82837 1.75
      vertex 10.1489 -11.9216 4
      vertex 10.1489 -11.9216 1.75
    endloop
  endfacet
  facet normal 0 0 -1
    outer loop
      vertex 10.1489 -11.9216 1.75
      vertex -10.1489 11.9216 1.75
      vertex 15.3989 -2.82837 1.75
    endloop
  endfacet
  facet normal 0 -0 -1
    outer loop
      vertex -10.1489 11.9216 1.75
      vertex 10.1489 -11.9216 1.75
      vertex -15.3989 2.82837 1.75
    endloop
  endfacet
  facet normal -0.866025 0.5 0
    outer loop
      vertex -21.9393 0 0
      vertex -19.0795 4.95336 10
      vertex -19.0795 4.95336 0
    endloop
  endfacet
  facet normal -0.866025 0.5 0
    outer loop
      vertex -19.0795 4.95336 10
      vertex -21.9393 0 0
      vertex -21.9393 0 10
    endloop
  endfacet
  facet normal -0.866025 0.5 0
    outer loop
      vertex -13.8295 14.0466 0
      vertex -10.9697 19 10
      vertex -10.9697 19 0
    endloop
  endfacet
  facet normal -0.866025 0.5 0
    outer loop
      vertex -10.9697 19 10
      vertex -13.8295 14.0466 0
      vertex -13.8295 14.0466 10
    endloop
  endfacet
  facet normal 0.866026 0.5 0
    outer loop
      vertex 21.9393 0 10
      vertex 18.7045 5.60288 0
      vertex 18.7045 5.60288 10
    endloop
  endfacet
  facet normal 0.866026 0.5 0
    outer loop
      vertex 18.7045 5.60288 0
      vertex 21.9393 0 10
      vertex 21.9393 0 0
    endloop
  endfacet
  facet normal 0.866025 0.5 0
    outer loop
      vertex 14.2045 13.3971 10
      vertex 11.8357 17.5 0
      vertex 11.8357 17.5 10
    endloop
  endfacet
  facet normal 0.866025 0.5 0
    outer loop
      vertex 11.8357 17.5 0
      vertex 14.2045 13.3971 10
      vertex 14.2045 13.3971 0
    endloop
  endfacet
  facet normal 0.866025 0.5 0
    outer loop
      vertex 17.2045 8.20096 10
      vertex 15.7045 10.799 0
      vertex 15.7045 10.799 10
    endloop
  endfacet
  facet normal 0.866025 0.5 0
    outer loop
      vertex 15.7045 10.799 0
      vertex 17.2045 8.20096 10
      vertex 17.2045 8.20096 0
    endloop
  endfacet
  facet normal -0.866026 -0.5 0
    outer loop
      vertex -18.7045 -5.60288 0
      vertex -21.9393 0 10
      vertex -21.9393 0 0
    endloop
  endfacet
  facet normal -0.866026 -0.5 0
    outer loop
      vertex -21.9393 0 10
      vertex -18.7045 -5.60288 0
      vertex -18.7045 -5.60288 10
    endloop
  endfacet
  facet normal -0.866025 -0.5 0
    outer loop
      vertex -15.7045 -10.799 0
      vertex -17.2045 -8.20096 10
      vertex -17.2045 -8.20096 0
    endloop
  endfacet
  facet normal -0.866025 -0.5 0
    outer loop
      vertex -17.2045 -8.20096 10
      vertex -15.7045 -10.799 0
      vertex -15.7045 -10.799 10
    endloop
  endfacet
  facet normal -0.866025 -0.5 0
    outer loop
      vertex -11.8357 -17.5 0
      vertex -14.2045 -13.3971 10
      vertex -14.2045 -13.3971 0
    endloop
  endfacet
  facet normal -0.866025 -0.5 0
    outer loop
      vertex -14.2045 -13.3971 10
      vertex -11.8357 -17.5 0
      vertex -11.8357 -17.5 10
    endloop
  endfacet
  facet normal 0.866025 -0.5 0
    outer loop
      vertex 10.9697 -19 10
      vertex 13.8295 -14.0466 0
      vertex 13.8295 -14.0466 10
    endloop
  endfacet
  facet normal 0.866025 -0.5 0
    outer loop
      vertex 13.8295 -14.0466 0
      vertex 10.9697 -19 10
      vertex 10.9697 -19 0
    endloop
  endfacet
  facet normal 0.866025 -0.5 0
    outer loop
      vertex 19.0795 -4.95336 10
      vertex 21.9393 0 0
      vertex 21.9393 0 10
    endloop
  endfacet
  facet normal 0.866025 -0.5 0
    outer loop
      vertex 21.9393 0 0
      vertex 19.0795 -4.95336 10
      vertex 19.0795 -4.95336 0
    endloop
  endfacet
  facet normal -0.707107 0.707107 0
    outer loop
      vertex -10.9697 19 0
      vertex -10.9696 19 10
      vertex -10.9696 19 0
    endloop
  endfacet
  facet normal -0.707107 0.707107 0
    outer loop
      vertex -10.9696 19 10
      vertex -10.9697 19 0
      vertex -10.9697 19 10
    endloop
  endfacet
  facet normal 0 0 1
    outer loop
      vertex 17.4648 0 4
      vertex 15.3989 -2.82837 4
      vertex 15.7236 -3.01587 4
    endloop
  endfacet
  facet normal -0 0 1
    outer loop
      vertex -10.1489 11.9216 4
      vertex 15.3989 -2.82837 4
      vertex 8.73242 15.125 4
    endloop
  endfacet
  facet normal 0 0 1
    outer loop
      vertex 8.73242 15.125 4
      vertex 15.3989 -2.82837 4
      vertex 17.4648 0 4
    endloop
  endfacet
  facet normal 0 0 1
    outer loop
      vertex 10.1489 -11.9216 4
      vertex 8.73242 -15.125 4
      vertex 10.4736 -12.1091 4
    endloop
  endfacet
  facet normal 0 0 1
    outer loop
      vertex 15.3989 -2.82837 4
      vertex -10.1489 11.9216 4
      vertex 10.1489 -11.9216 4
    endloop
  endfacet
  facet normal 0 0 1
    outer loop
      vertex -10.1489 11.9216 4
      vertex 8.73242 15.125 4
      vertex -8.73241 15.125 4
    endloop
  endfacet
  facet normal 0 0 1
    outer loop
      vertex -10.1489 11.9216 4
      vertex -8.73241 15.125 4
      vertex -8.73242 15.125 4
    endloop
  endfacet
  facet normal -0 0 1
    outer loop
      vertex -15.3989 2.82837 4
      vertex 10.1489 -11.9216 4
      vertex -10.1489 11.9216 4
    endloop
  endfacet
  facet normal 0 -0 1
    outer loop
      vertex -8.73242 -15.125 4
      vertex 10.1489 -11.9216 4
      vertex -15.3989 2.82837 4
    endloop
  endfacet
  facet normal 0 -0 1
    outer loop
      vertex -10.1489 11.9216 4
      vertex -8.73242 15.125 4
      vertex -10.4736 12.1091 4
    endloop
  endfacet
  facet normal 0 0 1
    outer loop
      vertex 10.1489 -11.9216 4
      vertex -8.73242 -15.125 4
      vertex 8.73242 -15.125 4
    endloop
  endfacet
  facet normal 0 0 1
    outer loop
      vertex -17.4648 0 4
      vertex -15.3989 2.82837 4
      vertex -15.7236 3.01587 4
    endloop
  endfacet
  facet normal 0 0 1
    outer loop
      vertex -15.3989 2.82837 4
      vertex -17.4648 0 4
      vertex -8.73242 -15.125 4
    endloop
  endfacet
  facet normal 0.707107 -0.707107 0
    outer loop
      vertex -8.73242 15.125 10
      vertex -8.73241 15.125 4
      vertex -8.73241 15.125 10
    endloop
  endfacet
  facet normal 0.707107 -0.707107 0
    outer loop
      vertex -8.73241 15.125 4
      vertex -8.73242 15.125 10
      vertex -8.73242 15.125 4
    endloop
  endfacet
  facet normal 0.866025 -0.5 0
    outer loop
      vertex -17.4648 0 10
      vertex -15.7236 3.01587 4
      vertex -15.7236 3.01587 10
    endloop
  endfacet
  facet normal 0.866025 -0.5 0
    outer loop
      vertex -15.7236 3.01587 4
      vertex -17.4648 0 10
      vertex -17.4648 0 4
    endloop
  endfacet
  facet normal 0.866025 -0.5 0
    outer loop
      vertex -10.4736 12.1091 10
      vertex -8.73242 15.125 4
      vertex -8.73242 15.125 10
    endloop
  endfacet
  facet normal 0.866025 -0.5 0
    outer loop
      vertex -8.73242 15.125 4
      vertex -10.4736 12.1091 10
      vertex -10.4736 12.1091 4
    endloop
  endfacet
  facet normal 0.866025 0.5 0
    outer loop
      vertex -8.73242 -15.125 10
      vertex -17.4648 0 4
      vertex -17.4648 0 10
    endloop
  endfacet
  facet normal 0.866025 0.5 0
    outer loop
      vertex -17.4648 0 4
      vertex -8.73242 -15.125 10
      vertex -8.73242 -15.125 4
    endloop
  endfacet
  facet normal -0.866025 -0.5 0
    outer loop
      vertex 17.4648 0 4
      vertex 8.73242 15.125 10
      vertex 8.73242 15.125 4
    endloop
  endfacet
  facet normal -0.866025 -0.5 0
    outer loop
      vertex 8.73242 15.125 10
      vertex 17.4648 0 4
      vertex 17.4648 0 10
    endloop
  endfacet
  facet normal 0 1 -0
    outer loop
      vertex 8.73242 -15.125 4
      vertex -8.73242 -15.125 10
      vertex 8.73242 -15.125 10
    endloop
  endfacet
  facet normal 0 1 0
    outer loop
      vertex -8.73242 -15.125 10
      vertex 8.73242 -15.125 4
      vertex -8.73242 -15.125 4
    endloop
  endfacet
  facet normal -8.73687e-007 -1 0
    outer loop
      vertex -8.73241 15.125 4
      vertex 8.73242 15.125 10
      vertex -8.73241 15.125 10
    endloop
  endfacet
  facet normal -8.73687e-007 -1 -0
    outer loop
      vertex 8.73242 15.125 10
      vertex -8.73241 15.125 4
      vertex 8.73242 15.125 4
    endloop
  endfacet
  facet normal -0.866025 0.5 0
    outer loop
      vertex 15.7236 -3.01587 4
      vertex 17.4648 0 10
      vertex 17.4648 0 4
    endloop
  endfacet
  facet normal -0.866025 0.5 0
    outer loop
      vertex 17.4648 0 10
      vertex 15.7236 -3.01587 4
      vertex 15.7236 -3.01587 10
    endloop
  endfacet
  facet normal -0.866025 0.5 0
    outer loop
      vertex 8.73242 -15.125 4
      vertex 10.4736 -12.1091 10
      vertex 10.4736 -12.1091 4
    endloop
  endfacet
  facet normal -0.866025 0.5 0
    outer loop
      vertex 10.4736 -12.1091 10
      vertex 8.73242 -15.125 4
      vertex 8.73242 -15.125 10
    endloop
  endfacet
  facet normal 0 -1 0
    outer loop
      vertex 34 -19 7.5
      vertex 31.4167 -19 11.2
      vertex 29 -19 11.2
    endloop
  endfacet
  facet normal 0 -1 0
    outer loop
      vertex 31.4167 -19 11.2
      vertex 34 -19 7.5
      vertex 36.5833 -19 11.2
    endloop
  endfacet
  facet normal 0 -1 -0
    outer loop
      vertex 36.5833 -19 11.2
      vertex 34 -19 7.5
      vertex 39 -19 11.2
    endloop
  endfacet
  facet normal 0 -1 0
    outer loop
      vertex 29 -19 11.2
      vertex 30.6667 -19 2.5
      vertex 34 -19 7.5
    endloop
  endfacet
  facet normal -0 -1 0
    outer loop
      vertex 30.6667 -19 2.5
      vertex 29 -19 11.2
      vertex 29 -19 0
    endloop
  endfacet
  facet normal 0 -1 0
    outer loop
      vertex 31.4167 -19 11.2
      vertex 36.5833 -19 12.7
      vertex 31.4167 -19 12.7
    endloop
  endfacet
  facet normal 0 -1 -0
    outer loop
      vertex 36.5833 -19 12.7
      vertex 31.4167 -19 11.2
      vertex 36.5833 -19 11.2
    endloop
  endfacet
  facet normal 0 -1 0
    outer loop
      vertex 37.3333 -19 2.5
      vertex 39 -19 11.2
      vertex 34 -19 7.5
    endloop
  endfacet
  facet normal 0 -1 0
    outer loop
      vertex 29 -19 0
      vertex 37.3333 -19 2.5
      vertex 30.6667 -19 2.5
    endloop
  endfacet
  facet normal 0 -1 0
    outer loop
      vertex 37.3333 -19 2.5
      vertex 39 -19 0
      vertex 39 -19 11.2
    endloop
  endfacet
  facet normal 0 -1 0
    outer loop
      vertex 39 -19 0
      vertex 37.3333 -19 2.5
      vertex 29 -19 0
    endloop
  endfacet
  facet normal 0 0 -1
    outer loop
      vertex 29 -15.125 10.5
      vertex 39 -14.625 10.5
      vertex 39 -15.125 10.5
    endloop
  endfacet
  facet normal -0 0 -1
    outer loop
      vertex 39 -14.625 10.5
      vertex 29 -15.125 10.5
      vertex 29 -14.625 10.5
    endloop
  endfacet
  facet normal 0 1 -0
    outer loop
      vertex 39 -15.125 1.5
      vertex 29 -15.125 10.5
      vertex 39 -15.125 10.5
    endloop
  endfacet
  facet normal 0 1 0
    outer loop
      vertex 29 -15.125 10.5
      vertex 39 -15.125 1.5
      vertex 29 -15.125 1.5
    endloop
  endfacet
  facet normal 0 0 -1
    outer loop
      vertex 29 -19 0
      vertex 39 19 0
      vertex 39 -19 0
    endloop
  endfacet
  facet normal -0 0 -1
    outer loop
      vertex 39 19 0
      vertex 29 -19 0
      vertex 29 19 0
    endloop
  endfacet
  facet normal 1 0 0
    outer loop
      vertex 39 -14.625 11.2
      vertex 39 -15.125 10.5
      vertex 39 -14.625 10.5
    endloop
  endfacet
  facet normal 1 0 0
    outer loop
      vertex 39 -15.125 10.5
      vertex 39 -19 11.2
      vertex 39 -15.125 1.5
    endloop
  endfacet
  facet normal 1 -0 0
    outer loop
      vertex 39 -19 11.2
      vertex 39 -15.125 10.5
      vertex 39 -14.625 11.2
    endloop
  endfacet
  facet normal 1 0 0
    outer loop
      vertex 39 15.125 1.5
      vertex 39 19 11.2
      vertex 39 15.125 10.5
    endloop
  endfacet
  facet normal 1 -0 0
    outer loop
      vertex 39 14.625 11.2
      vertex 39 15.125 10.5
      vertex 39 19 11.2
    endloop
  endfacet
  facet normal 1 0 0
    outer loop
      vertex 39 15.125 10.5
      vertex 39 14.625 11.2
      vertex 39 14.625 10.5
    endloop
  endfacet
  facet normal 1 0 0
    outer loop
      vertex 39 19 11.2
      vertex 39 15.125 1.5
      vertex 39 19 0
    endloop
  endfacet
  facet normal 1 -0 0
    outer loop
      vertex 39 -15.125 1.5
      vertex 39 19 0
      vertex 39 15.125 1.5
    endloop
  endfacet
  facet normal 1 0 0
    outer loop
      vertex 39 -15.125 1.5
      vertex 39 -19 0
      vertex 39 19 0
    endloop
  endfacet
  facet normal 1 0 0
    outer loop
      vertex 39 -19 0
      vertex 39 -15.125 1.5
      vertex 39 -19 11.2
    endloop
  endfacet
  facet normal -1 0 0
    outer loop
      vertex 29 19 0
      vertex 29 15.125 1.5
      vertex 29 19 11.2
    endloop
  endfacet
  facet normal -1 0 0
    outer loop
      vertex 29 19 0
      vertex 29 -15.125 1.5
      vertex 29 15.125 1.5
    endloop
  endfacet
  facet normal -1 0 0
    outer loop
      vertex 29 -19 11.2
      vertex 29 -15.125 1.5
      vertex 29 -19 0
    endloop
  endfacet
  facet normal -1 0 0
    outer loop
      vertex 29 -19 0
      vertex 29 -15.125 1.5
      vertex 29 19 0
    endloop
  endfacet
  facet normal -1 0 0
    outer loop
      vertex 29 15.125 10.5
      vertex 29 19 11.2
      vertex 29 15.125 1.5
    endloop
  endfacet
  facet normal -1 0 0
    outer loop
      vertex 29 14.625 11.2
      vertex 29 15.125 10.5
      vertex 29 14.625 10.5
    endloop
  endfacet
  facet normal -1 0 0
    outer loop
      vertex 29 15.125 10.5
      vertex 29 14.625 11.2
      vertex 29 19 11.2
    endloop
  endfacet
  facet normal -1 0 0
    outer loop
      vertex 29 -15.125 10.5
      vertex 29 -14.625 11.2
      vertex 29 -14.625 10.5
    endloop
  endfacet
  facet normal -1 0 0
    outer loop
      vertex 29 -15.125 10.5
      vertex 29 -19 11.2
      vertex 29 -14.625 11.2
    endloop
  endfacet
  facet normal -1 0 0
    outer loop
      vertex 29 -15.125 1.5
      vertex 29 -19 11.2
      vertex 29 -15.125 10.5
    endloop
  endfacet
  facet normal 0 0 1
    outer loop
      vertex 39 -14.625 11.2
      vertex 36.5833 -19 11.2
      vertex 39 -19 11.2
    endloop
  endfacet
  facet normal 0 0 1
    outer loop
      vertex 39 -14.625 11.2
      vertex 34 -15.125 11.2
      vertex 36.5833 -19 11.2
    endloop
  endfacet
  facet normal -0 0 1
    outer loop
      vertex 29 -14.625 11.2
      vertex 34 -15.125 11.2
      vertex 39 -14.625 11.2
    endloop
  endfacet
  facet normal 0 0 1
    outer loop
      vertex 29 -14.625 11.2
      vertex 31.4167 -19 11.2
      vertex 34 -15.125 11.2
    endloop
  endfacet
  facet normal 0 0 1
    outer loop
      vertex 31.4167 -19 11.2
      vertex 29 -14.625 11.2
      vertex 29 -19 11.2
    endloop
  endfacet
  facet normal 0 1 -0
    outer loop
      vertex 39 -14.625 10.5
      vertex 29 -14.625 11.2
      vertex 39 -14.625 11.2
    endloop
  endfacet
  facet normal 0 1 0
    outer loop
      vertex 29 -14.625 11.2
      vertex 39 -14.625 10.5
      vertex 29 -14.625 10.5
    endloop
  endfacet
  facet normal 0.832051 0.554699 0
    outer loop
      vertex 36.5833 -19 12.7
      vertex 34 -15.125 11.2
      vertex 34 -15.125 12.7
    endloop
  endfacet
  facet normal 0.832051 0.554699 0
    outer loop
      vertex 34 -15.125 11.2
      vertex 36.5833 -19 12.7
      vertex 36.5833 -19 11.2
    endloop
  endfacet
  facet normal 0 0 1
    outer loop
      vertex 34 -15.125 12.7
      vertex 31.4167 -19 12.7
      vertex 36.5833 -19 12.7
    endloop
  endfacet
  facet normal -0.832051 0.554699 0
    outer loop
      vertex 31.4167 -19 11.2
      vertex 34 -15.125 12.7
      vertex 34 -15.125 11.2
    endloop
  endfacet
  facet normal -0.832051 0.554699 0
    outer loop
      vertex 34 -15.125 12.7
      vertex 31.4167 -19 11.2
      vertex 31.4167 -19 12.7
    endloop
  endfacet
  facet normal -0 -1 0
    outer loop
      vertex 37.3333 -18.25 2.5
      vertex 34 -18.25 7.5
      vertex 30.6667 -18.25 2.5
    endloop
  endfacet
  facet normal -1.43051e-007 0 1
    outer loop
      vertex 30.6667 -18.25 2.5
      vertex 37.3333 -19 2.5
      vertex 37.3333 -18.25 2.5
    endloop
  endfacet
  facet normal -1.43051e-007 0 1
    outer loop
      vertex 37.3333 -19 2.5
      vertex 30.6667 -18.25 2.5
      vertex 30.6667 -19 2.5
    endloop
  endfacet
  facet normal -0.832051 0 -0.5547
    outer loop
      vertex 37.3333 -19 2.5
      vertex 34 -18.25 7.5
      vertex 37.3333 -18.25 2.5
    endloop
  endfacet
  facet normal -0.832051 -0 -0.5547
    outer loop
      vertex 34 -18.25 7.5
      vertex 37.3333 -19 2.5
      vertex 34 -19 7.5
    endloop
  endfacet
  facet normal 0.832051 0 -0.5547
    outer loop
      vertex 34 -19 7.5
      vertex 30.6667 -18.25 2.5
      vertex 34 -18.25 7.5
    endloop
  endfacet
  facet normal 0.832051 0 -0.5547
    outer loop
      vertex 30.6667 -18.25 2.5
      vertex 34 -19 7.5
      vertex 30.6667 -19 2.5
    endloop
  endfacet
  facet normal 0 1 0
    outer loop
      vertex 34 19 7.5
      vertex 36.5833 19 11.2
      vertex 39 19 11.2
    endloop
  endfacet
  facet normal 0 1 0
    outer loop
      vertex 36.5833 19 11.2
      vertex 34 19 7.5
      vertex 31.4167 19 11.2
    endloop
  endfacet
  facet normal 0 1 0
    outer loop
      vertex 31.4167 19 11.2
      vertex 34 19 7.5
      vertex 29 19 11.2
    endloop
  endfacet
  facet normal 0 1 0
    outer loop
      vertex 39 19 11.2
      vertex 37.3333 19 2.5
      vertex 34 19 7.5
    endloop
  endfacet
  facet normal 0 1 0
    outer loop
      vertex 37.3333 19 2.5
      vertex 39 19 0
      vertex 30.6667 19 2.5
    endloop
  endfacet
  facet normal 0 1 -0
    outer loop
      vertex 39 19 0
      vertex 37.3333 19 2.5
      vertex 39 19 11.2
    endloop
  endfacet
  facet normal 0 1 -0
    outer loop
      vertex 36.5833 19 11.2
      vertex 31.4167 19 12.7
      vertex 36.5833 19 12.7
    endloop
  endfacet
  facet normal 0 1 0
    outer loop
      vertex 31.4167 19 12.7
      vertex 36.5833 19 11.2
      vertex 31.4167 19 11.2
    endloop
  endfacet
  facet normal 0 1 -0
    outer loop
      vertex 30.6667 19 2.5
      vertex 29 19 11.2
      vertex 34 19 7.5
    endloop
  endfacet
  facet normal 0 1 0
    outer loop
      vertex 30.6667 19 2.5
      vertex 29 19 0
      vertex 29 19 11.2
    endloop
  endfacet
  facet normal 0 1 0
    outer loop
      vertex 29 19 0
      vertex 30.6667 19 2.5
      vertex 39 19 0
    endloop
  endfacet
  facet normal 0 0 -1
    outer loop
      vertex 29 14.625 10.5
      vertex 39 15.125 10.5
      vertex 39 14.625 10.5
    endloop
  endfacet
  facet normal -0 0 -1
    outer loop
      vertex 39 15.125 10.5
      vertex 29 14.625 10.5
      vertex 29 15.125 10.5
    endloop
  endfacet
  facet normal 0 -1 0
    outer loop
      vertex 29 15.125 1.5
      vertex 39 15.125 10.5
      vertex 29 15.125 10.5
    endloop
  endfacet
  facet normal 0 -1 -0
    outer loop
      vertex 39 15.125 10.5
      vertex 29 15.125 1.5
      vertex 39 15.125 1.5
    endloop
  endfacet
  facet normal -0 0 1
    outer loop
      vertex 36.5833 19 11.2
      vertex 39 14.625 11.2
      vertex 39 19 11.2
    endloop
  endfacet
  facet normal -0 0 1
    outer loop
      vertex 34 15.125 11.2
      vertex 39 14.625 11.2
      vertex 36.5833 19 11.2
    endloop
  endfacet
  facet normal 0 0 1
    outer loop
      vertex 29 14.625 11.2
      vertex 31.4167 19 11.2
      vertex 29 19 11.2
    endloop
  endfacet
  facet normal 0 0 1
    outer loop
      vertex 34 15.125 11.2
      vertex 29 14.625 11.2
      vertex 39 14.625 11.2
    endloop
  endfacet
  facet normal 0 0 1
    outer loop
      vertex 31.4167 19 11.2
      vertex 29 14.625 11.2
      vertex 34 15.125 11.2
    endloop
  endfacet
  facet normal 0 -1 0
    outer loop
      vertex 29 14.625 10.5
      vertex 39 14.625 11.2
      vertex 29 14.625 11.2
    endloop
  endfacet
  facet normal 0 -1 -0
    outer loop
      vertex 39 14.625 11.2
      vertex 29 14.625 10.5
      vertex 39 14.625 10.5
    endloop
  endfacet
  facet normal 0.832051 -0.554699 0
    outer loop
      vertex 34 15.125 12.7
      vertex 36.5833 19 11.2
      vertex 36.5833 19 12.7
    endloop
  endfacet
  facet normal 0.832051 -0.554699 0
    outer loop
      vertex 36.5833 19 11.2
      vertex 34 15.125 12.7
      vertex 34 15.125 11.2
    endloop
  endfacet
  facet normal 0 -0 1
    outer loop
      vertex 34 15.125 12.7
      vertex 36.5833 19 12.7
      vertex 31.4167 19 12.7
    endloop
  endfacet
  facet normal -0.832051 -0.554699 0
    outer loop
      vertex 34 15.125 11.2
      vertex 31.4167 19 12.7
      vertex 31.4167 19 11.2
    endloop
  endfacet
  facet normal -0.832051 -0.554699 0
    outer loop
      vertex 31.4167 19 12.7
      vertex 34 15.125 11.2
      vertex 34 15.125 12.7
    endloop
  endfacet
  facet normal 0 1 0
    outer loop
      vertex 37.3333 18.25 2.5
      vertex 30.6667 18.25 2.5
      vertex 34 18.25 7.5
    endloop
  endfacet
  facet normal -1.43051e-007 0 1
    outer loop
      vertex 30.6667 19 2.5
      vertex 37.3333 18.25 2.5
      vertex 37.3333 19 2.5
    endloop
  endfacet
  facet normal -1.43051e-007 0 1
    outer loop
      vertex 37.3333 18.25 2.5
      vertex 30.6667 19 2.5
      vertex 30.6667 18.25 2.5
    endloop
  endfacet
  facet normal -0.832051 0 -0.5547
    outer loop
      vertex 37.3333 18.25 2.5
      vertex 34 19 7.5
      vertex 37.3333 19 2.5
    endloop
  endfacet
  facet normal -0.832051 -0 -0.5547
    outer loop
      vertex 34 19 7.5
      vertex 37.3333 18.25 2.5
      vertex 34 18.25 7.5
    endloop
  endfacet
  facet normal 0.832051 0 -0.5547
    outer loop
      vertex 34 18.25 7.5
      vertex 30.6667 19 2.5
      vertex 34 19 7.5
    endloop
  endfacet
  facet normal 0.832051 0 -0.5547
    outer loop
      vertex 30.6667 19 2.5
      vertex 34 18.25 7.5
      vertex 30.6667 18.25 2.5
    endloop
  endfacet
  facet normal -0 0 1
    outer loop
      vertex 29 15.125 1.5
      vertex 39 -15.125 1.5
      vertex 39 15.125 1.5
    endloop
  endfacet
  facet normal 0 0 1
    outer loop
      vertex 39 -15.125 1.5
      vertex 29 15.125 1.5
      vertex 29 -15.125 1.5
    endloop
  endfacet
  facet normal 0 -1 0
    outer loop
      vertex 46.5 -19 7.5
      vertex 47.0625 -19 11.2
      vertex 44 -19 11.2
    endloop
  endfacet
  facet normal 0 -1 -0
    outer loop
      vertex 47.0625 -19 11.2
      vertex 46.5 -19 7.5
      vertex 50.9375 -19 11.2
    endloop
  endfacet
  facet normal 0 -1 0
    outer loop
      vertex 51.5 -19 7.5
      vertex 50.9375 -19 11.2
      vertex 46.5 -19 7.5
    endloop
  endfacet
  facet normal 0 -1 0
    outer loop
      vertex 44 -19 0
      vertex 46.5 -19 7.5
      vertex 44 -19 11.2
    endloop
  endfacet
  facet normal 0 -1 -0
    outer loop
      vertex 46.5 -19 2.5
      vertex 44 -19 0
      vertex 51.5 -19 2.5
    endloop
  endfacet
  facet normal 0 -1 -0
    outer loop
      vertex 46.5 -19 7.5
      vertex 44 -19 0
      vertex 46.5 -19 2.5
    endloop
  endfacet
  facet normal 0 -1 0
    outer loop
      vertex 47.0625 -19 11.2
      vertex 50.9375 -19 12.7
      vertex 47.0625 -19 12.7
    endloop
  endfacet
  facet normal 0 -1 -0
    outer loop
      vertex 50.9375 -19 12.7
      vertex 47.0625 -19 11.2
      vertex 50.9375 -19 11.2
    endloop
  endfacet
  facet normal 0 -1 0
    outer loop
      vertex 50.9375 -19 11.2
      vertex 51.5 -19 7.5
      vertex 54 -19 11.2
    endloop
  endfacet
  facet normal 0 -1 0
    outer loop
      vertex 54 -19 0
      vertex 51.5 -19 7.5
      vertex 51.5 -19 2.5
    endloop
  endfacet
  facet normal 0 -1 0
    outer loop
      vertex 51.5 -19 7.5
      vertex 54 -19 0
      vertex 54 -19 11.2
    endloop
  endfacet
  facet normal 0 -1 0
    outer loop
      vertex 54 -19 0
      vertex 51.5 -19 2.5
      vertex 44 -19 0
    endloop
  endfacet
  facet normal 0 0 -1
    outer loop
      vertex 44 -15.125 10.5
      vertex 54 -14.625 10.5
      vertex 54 -15.125 10.5
    endloop
  endfacet
  facet normal -0 0 -1
    outer loop
      vertex 54 -14.625 10.5
      vertex 44 -15.125 10.5
      vertex 44 -14.625 10.5
    endloop
  endfacet
  facet normal 0 1 -0
    outer loop
      vertex 54 -15.125 1.5
      vertex 44 -15.125 10.5
      vertex 54 -15.125 10.5
    endloop
  endfacet
  facet normal 0 1 0
    outer loop
      vertex 44 -15.125 10.5
      vertex 54 -15.125 1.5
      vertex 44 -15.125 1.5
    endloop
  endfacet
  facet normal 0 0 -1
    outer loop
      vertex 44 -19 0
      vertex 54 19 0
      vertex 54 -19 0
    endloop
  endfacet
  facet normal -0 0 -1
    outer loop
      vertex 54 19 0
      vertex 44 -19 0
      vertex 44 19 0
    endloop
  endfacet
  facet normal 1 0 0
    outer loop
      vertex 54 -14.625 11.2
      vertex 54 -15.125 10.5
      vertex 54 -14.625 10.5
    endloop
  endfacet
  facet normal 1 0 0
    outer loop
      vertex 54 -15.125 10.5
      vertex 54 -19 11.2
      vertex 54 -15.125 1.5
    endloop
  endfacet
  facet normal 1 -0 0
    outer loop
      vertex 54 -19 11.2
      vertex 54 -15.125 10.5
      vertex 54 -14.625 11.2
    endloop
  endfacet
  facet normal 1 0 0
    outer loop
      vertex 54 15.125 1.5
      vertex 54 19 11.2
      vertex 54 15.125 10.5
    endloop
  endfacet
  facet normal 1 -0 0
    outer loop
      vertex 54 14.625 11.2
      vertex 54 15.125 10.5
      vertex 54 19 11.2
    endloop
  endfacet
  facet normal 1 0 0
    outer loop
      vertex 54 15.125 10.5
      vertex 54 14.625 11.2
      vertex 54 14.625 10.5
    endloop
  endfacet
  facet normal 1 0 0
    outer loop
      vertex 54 19 11.2
      vertex 54 15.125 1.5
      vertex 54 19 0
    endloop
  endfacet
  facet normal 1 -0 0
    outer loop
      vertex 54 -15.125 1.5
      vertex 54 19 0
      vertex 54 15.125 1.5
    endloop
  endfacet
  facet normal 1 0 0
    outer loop
      vertex 54 -15.125 1.5
      vertex 54 -19 0
      vertex 54 19 0
    endloop
  endfacet
  facet normal 1 0 0
    outer loop
      vertex 54 -19 0
      vertex 54 -15.125 1.5
      vertex 54 -19 11.2
    endloop
  endfacet
  facet normal -1 0 0
    outer loop
      vertex 44 19 0
      vertex 44 15.125 1.5
      vertex 44 19 11.2
    endloop
  endfacet
  facet normal -1 0 0
    outer loop
      vertex 44 19 0
      vertex 44 -15.125 1.5
      vertex 44 15.125 1.5
    endloop
  endfacet
  facet normal -1 0 0
    outer loop
      vertex 44 -19 11.2
      vertex 44 -15.125 1.5
      vertex 44 -19 0
    endloop
  endfacet
  facet normal -1 0 0
    outer loop
      vertex 44 -19 0
      vertex 44 -15.125 1.5
      vertex 44 19 0
    endloop
  endfacet
  facet normal -1 0 0
    outer loop
      vertex 44 15.125 10.5
      vertex 44 19 11.2
      vertex 44 15.125 1.5
    endloop
  endfacet
  facet normal -1 0 0
    outer loop
      vertex 44 14.625 11.2
      vertex 44 15.125 10.5
      vertex 44 14.625 10.5
    endloop
  endfacet
  facet normal -1 0 0
    outer loop
      vertex 44 15.125 10.5
      vertex 44 14.625 11.2
      vertex 44 19 11.2
    endloop
  endfacet
  facet normal -1 0 0
    outer loop
      vertex 44 -15.125 10.5
      vertex 44 -14.625 11.2
      vertex 44 -14.625 10.5
    endloop
  endfacet
  facet normal -1 0 0
    outer loop
      vertex 44 -15.125 10.5
      vertex 44 -19 11.2
      vertex 44 -14.625 11.2
    endloop
  endfacet
  facet normal -1 0 0
    outer loop
      vertex 44 -15.125 1.5
      vertex 44 -19 11.2
      vertex 44 -15.125 10.5
    endloop
  endfacet
  facet normal 0 0 1
    outer loop
      vertex 54 -14.625 11.2
      vertex 50.9375 -15.125 11.2
      vertex 54 -19 11.2
    endloop
  endfacet
  facet normal 0 0 1
    outer loop
      vertex 54 -14.625 11.2
      vertex 47.0625 -15.125 11.2
      vertex 50.9375 -15.125 11.2
    endloop
  endfacet
  facet normal -0 0 1
    outer loop
      vertex 44 -14.625 11.2
      vertex 47.0625 -15.125 11.2
      vertex 54 -14.625 11.2
    endloop
  endfacet
  facet normal 0 0 1
    outer loop
      vertex 44 -19 11.2
      vertex 47.0625 -15.125 11.2
      vertex 44 -14.625 11.2
    endloop
  endfacet
  facet normal 0 0 1
    outer loop
      vertex 47.0625 -15.125 11.2
      vertex 44 -19 11.2
      vertex 47.0625 -19 11.2
    endloop
  endfacet
  facet normal 0 0 1
    outer loop
      vertex 54 -19 11.2
      vertex 50.9375 -15.125 11.2
      vertex 50.9375 -19 11.2
    endloop
  endfacet
  facet normal 0 1 -0
    outer loop
      vertex 54 -14.625 10.5
      vertex 44 -14.625 11.2
      vertex 54 -14.625 11.2
    endloop
  endfacet
  facet normal 0 1 0
    outer loop
      vertex 44 -14.625 11.2
      vertex 54 -14.625 10.5
      vertex 44 -14.625 10.5
    endloop
  endfacet
  facet normal -0 0 1
    outer loop
      vertex 47.0625 -15.125 12.7
      vertex 50.9375 -19 12.7
      vertex 50.9375 -15.125 12.7
    endloop
  endfacet
  facet normal 0 0 1
    outer loop
      vertex 50.9375 -19 12.7
      vertex 47.0625 -15.125 12.7
      vertex 47.0625 -19 12.7
    endloop
  endfacet
  facet normal 0 1 -0
    outer loop
      vertex 50.9375 -15.125 11.2
      vertex 47.0625 -15.125 12.7
      vertex 50.9375 -15.125 12.7
    endloop
  endfacet
  facet normal 0 1 0
    outer loop
      vertex 47.0625 -15.125 12.7
      vertex 50.9375 -15.125 11.2
      vertex 47.0625 -15.125 11.2
    endloop
  endfacet
  facet normal 1 -0 0
    outer loop
      vertex 50.9375 -19 12.7
      vertex 50.9375 -15.125 11.2
      vertex 50.9375 -15.125 12.7
    endloop
  endfacet
  facet normal 1 0 0
    outer loop
      vertex 50.9375 -15.125 11.2
      vertex 50.9375 -19 12.7
      vertex 50.9375 -19 11.2
    endloop
  endfacet
  facet normal -1 0 0
    outer loop
      vertex 47.0625 -19 11.2
      vertex 47.0625 -15.125 12.7
      vertex 47.0625 -15.125 11.2
    endloop
  endfacet
  facet normal -1 -0 0
    outer loop
      vertex 47.0625 -15.125 12.7
      vertex 47.0625 -19 11.2
      vertex 47.0625 -19 12.7
    endloop
  endfacet
  facet normal -0 0 1
    outer loop
      vertex 46.5 -18.25 2.5
      vertex 51.5 -19 2.5
      vertex 51.5 -18.25 2.5
    endloop
  endfacet
  facet normal 0 0 1
    outer loop
      vertex 51.5 -19 2.5
      vertex 46.5 -18.25 2.5
      vertex 46.5 -19 2.5
    endloop
  endfacet
  facet normal 0 0 -1
    outer loop
      vertex 46.5 -19 7.5
      vertex 51.5 -18.25 7.5
      vertex 51.5 -19 7.5
    endloop
  endfacet
  facet normal -0 0 -1
    outer loop
      vertex 51.5 -18.25 7.5
      vertex 46.5 -19 7.5
      vertex 46.5 -18.25 7.5
    endloop
  endfacet
  facet normal 1 -0 0
    outer loop
      vertex 46.5 -19 7.5
      vertex 46.5 -18.25 2.5
      vertex 46.5 -18.25 7.5
    endloop
  endfacet
  facet normal 1 0 0
    outer loop
      vertex 46.5 -18.25 2.5
      vertex 46.5 -19 7.5
      vertex 46.5 -19 2.5
    endloop
  endfacet
  facet normal 0 -1 0
    outer loop
      vertex 46.5 -18.25 2.5
      vertex 51.5 -18.25 7.5
      vertex 46.5 -18.25 7.5
    endloop
  endfacet
  facet normal 0 -1 -0
    outer loop
      vertex 51.5 -18.25 7.5
      vertex 46.5 -18.25 2.5
      vertex 51.5 -18.25 2.5
    endloop
  endfacet
  facet normal -1 0 0
    outer loop
      vertex 51.5 -19 2.5
      vertex 51.5 -18.25 7.5
      vertex 51.5 -18.25 2.5
    endloop
  endfacet
  facet normal -1 -0 0
    outer loop
      vertex 51.5 -18.25 7.5
      vertex 51.5 -19 2.5
      vertex 51.5 -19 7.5
    endloop
  endfacet
  facet normal 0 1 -0
    outer loop
      vertex 51.5 19 7.5
      vertex 50.9375 19 11.2
      vertex 54 19 11.2
    endloop
  endfacet
  facet normal 0 1 0
    outer loop
      vertex 50.9375 19 11.2
      vertex 51.5 19 7.5
      vertex 47.0625 19 11.2
    endloop
  endfacet
  facet normal 0 1 0
    outer loop
      vertex 46.5 19 7.5
      vertex 47.0625 19 11.2
      vertex 51.5 19 7.5
    endloop
  endfacet
  facet normal 0 1 -0
    outer loop
      vertex 54 19 0
      vertex 51.5 19 7.5
      vertex 54 19 11.2
    endloop
  endfacet
  facet normal 0 1 0
    outer loop
      vertex 51.5 19 2.5
      vertex 54 19 0
      vertex 46.5 19 2.5
    endloop
  endfacet
  facet normal 0 1 0
    outer loop
      vertex 51.5 19 7.5
      vertex 54 19 0
      vertex 51.5 19 2.5
    endloop
  endfacet
  facet normal 0 1 -0
    outer loop
      vertex 50.9375 19 11.2
      vertex 47.0625 19 12.7
      vertex 50.9375 19 12.7
    endloop
  endfacet
  facet normal 0 1 0
    outer loop
      vertex 47.0625 19 12.7
      vertex 50.9375 19 11.2
      vertex 47.0625 19 11.2
    endloop
  endfacet
  facet normal 0 1 0
    outer loop
      vertex 47.0625 19 11.2
      vertex 46.5 19 7.5
      vertex 44 19 11.2
    endloop
  endfacet
  facet normal 0 1 0
    outer loop
      vertex 44 19 0
      vertex 46.5 19 7.5
      vertex 46.5 19 2.5
    endloop
  endfacet
  facet normal 0 1 0
    outer loop
      vertex 46.5 19 7.5
      vertex 44 19 0
      vertex 44 19 11.2
    endloop
  endfacet
  facet normal 0 1 0
    outer loop
      vertex 44 19 0
      vertex 46.5 19 2.5
      vertex 54 19 0
    endloop
  endfacet
  facet normal 0 0 -1
    outer loop
      vertex 44 14.625 10.5
      vertex 54 15.125 10.5
      vertex 54 14.625 10.5
    endloop
  endfacet
  facet normal -0 0 -1
    outer loop
      vertex 54 15.125 10.5
      vertex 44 14.625 10.5
      vertex 44 15.125 10.5
    endloop
  endfacet
  facet normal 0 -1 0
    outer loop
      vertex 44 15.125 1.5
      vertex 54 15.125 10.5
      vertex 44 15.125 10.5
    endloop
  endfacet
  facet normal 0 -1 -0
    outer loop
      vertex 54 15.125 10.5
      vertex 44 15.125 1.5
      vertex 54 15.125 1.5
    endloop
  endfacet
  facet normal 0 0 1
    outer loop
      vertex 47.0625 19 11.2
      vertex 44 19 11.2
      vertex 47.0625 15.125 11.2
    endloop
  endfacet
  facet normal 0 0 1
    outer loop
      vertex 50.9375 15.125 11.2
      vertex 54 19 11.2
      vertex 50.9375 19 11.2
    endloop
  endfacet
  facet normal 0 0 1
    outer loop
      vertex 54 19 11.2
      vertex 50.9375 15.125 11.2
      vertex 54 14.625 11.2
    endloop
  endfacet
  facet normal -0 0 1
    outer loop
      vertex 47.0625 15.125 11.2
      vertex 54 14.625 11.2
      vertex 50.9375 15.125 11.2
    endloop
  endfacet
  facet normal 0 0 1
    outer loop
      vertex 47.0625 15.125 11.2
      vertex 44 14.625 11.2
      vertex 54 14.625 11.2
    endloop
  endfacet
  facet normal 0 0 1
    outer loop
      vertex 44 14.625 11.2
      vertex 47.0625 15.125 11.2
      vertex 44 19 11.2
    endloop
  endfacet
  facet normal 0 -1 0
    outer loop
      vertex 44 14.625 10.5
      vertex 54 14.625 11.2
      vertex 44 14.625 11.2
    endloop
  endfacet
  facet normal 0 -1 -0
    outer loop
      vertex 54 14.625 11.2
      vertex 44 14.625 10.5
      vertex 54 14.625 10.5
    endloop
  endfacet
  facet normal -0 0 1
    outer loop
      vertex 47.0625 19 12.7
      vertex 50.9375 15.125 12.7
      vertex 50.9375 19 12.7
    endloop
  endfacet
  facet normal 0 0 1
    outer loop
      vertex 50.9375 15.125 12.7
      vertex 47.0625 19 12.7
      vertex 47.0625 15.125 12.7
    endloop
  endfacet
  facet normal 0 -1 0
    outer loop
      vertex 47.0625 15.125 11.2
      vertex 50.9375 15.125 12.7
      vertex 47.0625 15.125 12.7
    endloop
  endfacet
  facet normal 0 -1 -0
    outer loop
      vertex 50.9375 15.125 12.7
      vertex 47.0625 15.125 11.2
      vertex 50.9375 15.125 11.2
    endloop
  endfacet
  facet normal 1 -0 0
    outer loop
      vertex 50.9375 15.125 12.7
      vertex 50.9375 19 11.2
      vertex 50.9375 19 12.7
    endloop
  endfacet
  facet normal 1 0 0
    outer loop
      vertex 50.9375 19 11.2
      vertex 50.9375 15.125 12.7
      vertex 50.9375 15.125 11.2
    endloop
  endfacet
  facet normal -1 0 0
    outer loop
      vertex 47.0625 15.125 11.2
      vertex 47.0625 19 12.7
      vertex 47.0625 19 11.2
    endloop
  endfacet
  facet normal -1 -0 0
    outer loop
      vertex 47.0625 19 12.7
      vertex 47.0625 15.125 11.2
      vertex 47.0625 15.125 12.7
    endloop
  endfacet
  facet normal -0 0 1
    outer loop
      vertex 46.5 19 2.5
      vertex 51.5 18.25 2.5
      vertex 51.5 19 2.5
    endloop
  endfacet
  facet normal 0 0 1
    outer loop
      vertex 51.5 18.25 2.5
      vertex 46.5 19 2.5
      vertex 46.5 18.25 2.5
    endloop
  endfacet
  facet normal 0 0 -1
    outer loop
      vertex 46.5 18.25 7.5
      vertex 51.5 19 7.5
      vertex 51.5 18.25 7.5
    endloop
  endfacet
  facet normal -0 0 -1
    outer loop
      vertex 51.5 19 7.5
      vertex 46.5 18.25 7.5
      vertex 46.5 19 7.5
    endloop
  endfacet
  facet normal 1 -0 0
    outer loop
      vertex 46.5 18.25 7.5
      vertex 46.5 19 2.5
      vertex 46.5 19 7.5
    endloop
  endfacet
  facet normal 1 0 0
    outer loop
      vertex 46.5 19 2.5
      vertex 46.5 18.25 7.5
      vertex 46.5 18.25 2.5
    endloop
  endfacet
  facet normal 0 1 -0
    outer loop
      vertex 51.5 18.25 2.5
      vertex 46.5 18.25 7.5
      vertex 51.5 18.25 7.5
    endloop
  endfacet
  facet normal 0 1 0
    outer loop
      vertex 46.5 18.25 7.5
      vertex 51.5 18.25 2.5
      vertex 46.5 18.25 2.5
    endloop
  endfacet
  facet normal -1 0 0
    outer loop
      vertex 51.5 18.25 2.5
      vertex 51.5 19 7.5
      vertex 51.5 19 2.5
    endloop
  endfacet
  facet normal -1 -0 0
    outer loop
      vertex 51.5 19 7.5
      vertex 51.5 18.25 2.5
      vertex 51.5 18.25 7.5
    endloop
  endfacet
  facet normal -0 0 1
    outer loop
      vertex 44 15.125 1.5
      vertex 54 -15.125 1.5
      vertex 54 15.125 1.5
    endloop
  endfacet
  facet normal 0 0 1
    outer loop
      vertex 54 -15.125 1.5
      vertex 44 15.125 1.5
      vertex 44 -15.125 1.5
    endloop
  endfacet
  facet normal 0 -1 0
    outer loop
      vertex 59 -19 11.2
      vertex 64 -19 7.5
      vertex 69 -19 11.2
    endloop
  endfacet
  facet normal 0 -1 0
    outer loop
      vertex 59 -19 11.2
      vertex 62.2322 -19 6.76777
      vertex 64 -19 7.5
    endloop
  endfacet
  facet normal 0 -1 0
    outer loop
      vertex 59 -19 11.2
      vertex 61.5 -19 5
      vertex 62.2322 -19 6.76777
    endloop
  endfacet
  facet normal 0 -1 -0
    outer loop
      vertex 62.2322 -19 3.23223
      vertex 59 -19 0
      vertex 64 -19 2.5
    endloop
  endfacet
  facet normal 0 -1 -0
    outer loop
      vertex 61.5 -19 5
      vertex 59 -19 0
      vertex 62.2322 -19 3.23223
    endloop
  endfacet
  facet normal 0 -1 0
    outer loop
      vertex 59 -19 0
      vertex 61.5 -19 5
      vertex 59 -19 11.2
    endloop
  endfacet
  facet normal 0 -1 0
    outer loop
      vertex 65.7678 -19 6.76777
      vertex 69 -19 11.2
      vertex 64 -19 7.5
    endloop
  endfacet
  facet normal 0 -1 0
    outer loop
      vertex 66.1339 -19 5.88388
      vertex 69 -19 11.2
      vertex 65.7678 -19 6.76777
    endloop
  endfacet
  facet normal 0 -1 0
    outer loop
      vertex 66.5 -19 5
      vertex 69 -19 11.2
      vertex 66.1339 -19 5.88388
    endloop
  endfacet
  facet normal 0 -1 0
    outer loop
      vertex 69 -19 0
      vertex 66.1339 -19 4.11612
      vertex 65.7678 -19 3.23223
    endloop
  endfacet
  facet normal 0 -1 0
    outer loop
      vertex 69 -19 0
      vertex 64 -19 2.5
      vertex 59 -19 0
    endloop
  endfacet
  facet normal 0 -1 0
    outer loop
      vertex 66.5 -19 5
      vertex 69 -19 0
      vertex 69 -19 11.2
    endloop
  endfacet
  facet normal 0 -1 0
    outer loop
      vertex 66.1339 -19 4.11612
      vertex 69 -19 0
      vertex 66.5 -19 5
    endloop
  endfacet
  facet normal 0 -1 0
    outer loop
      vertex 64 -19 2.5
      vertex 69 -19 0
      vertex 65.7678 -19 3.23223
    endloop
  endfacet
  facet normal 0 0 -1
    outer loop
      vertex 59 -15.125 10.5
      vertex 69 -14.625 10.5
      vertex 69 -15.125 10.5
    endloop
  endfacet
  facet normal -0 0 -1
    outer loop
      vertex 69 -14.625 10.5
      vertex 59 -15.125 10.5
      vertex 59 -14.625 10.5
    endloop
  endfacet
  facet normal 0 1 -0
    outer loop
      vertex 69 -15.125 1.5
      vertex 59 -15.125 10.5
      vertex 69 -15.125 10.5
    endloop
  endfacet
  facet normal 0 1 0
    outer loop
      vertex 59 -15.125 10.5
      vertex 69 -15.125 1.5
      vertex 59 -15.125 1.5
    endloop
  endfacet
  facet normal 0 0 -1
    outer loop
      vertex 59 -19 0
      vertex 69 19 0
      vertex 69 -19 0
    endloop
  endfacet
  facet normal -0 0 -1
    outer loop
      vertex 69 19 0
      vertex 59 -19 0
      vertex 59 19 0
    endloop
  endfacet
  facet normal 1 0 0
    outer loop
      vertex 69 -14.625 11.2
      vertex 69 -15.125 10.5
      vertex 69 -14.625 10.5
    endloop
  endfacet
  facet normal 1 0 0
    outer loop
      vertex 69 -15.125 10.5
      vertex 69 -19 11.2
      vertex 69 -15.125 1.5
    endloop
  endfacet
  facet normal 1 -0 0
    outer loop
      vertex 69 -19 11.2
      vertex 69 -15.125 10.5
      vertex 69 -14.625 11.2
    endloop
  endfacet
  facet normal 1 0 0
    outer loop
      vertex 69 15.125 1.5
      vertex 69 19 11.2
      vertex 69 15.125 10.5
    endloop
  endfacet
  facet normal 1 -0 0
    outer loop
      vertex 69 14.625 11.2
      vertex 69 15.125 10.5
      vertex 69 19 11.2
    endloop
  endfacet
  facet normal 1 0 0
    outer loop
      vertex 69 15.125 10.5
      vertex 69 14.625 11.2
      vertex 69 14.625 10.5
    endloop
  endfacet
  facet normal 1 0 0
    outer loop
      vertex 69 19 11.2
      vertex 69 15.125 1.5
      vertex 69 19 0
    endloop
  endfacet
  facet normal 1 -0 0
    outer loop
      vertex 69 -15.125 1.5
      vertex 69 19 0
      vertex 69 15.125 1.5
    endloop
  endfacet
  facet normal 1 0 0
    outer loop
      vertex 69 -15.125 1.5
      vertex 69 -19 0
      vertex 69 19 0
    endloop
  endfacet
  facet normal 1 0 0
    outer loop
      vertex 69 -19 0
      vertex 69 -15.125 1.5
      vertex 69 -19 11.2
    endloop
  endfacet
  facet normal -1 0 0
    outer loop
      vertex 59 19 0
      vertex 59 15.125 1.5
      vertex 59 19 11.2
    endloop
  endfacet
  facet normal -1 0 0
    outer loop
      vertex 59 19 0
      vertex 59 -15.125 1.5
      vertex 59 15.125 1.5
    endloop
  endfacet
  facet normal -1 0 0
    outer loop
      vertex 59 -19 11.2
      vertex 59 -15.125 1.5
      vertex 59 -19 0
    endloop
  endfacet
  facet normal -1 0 0
    outer loop
      vertex 59 -19 0
      vertex 59 -15.125 1.5
      vertex 59 19 0
    endloop
  endfacet
  facet normal -1 0 0
    outer loop
      vertex 59 15.125 10.5
      vertex 59 19 11.2
      vertex 59 15.125 1.5
    endloop
  endfacet
  facet normal -1 0 0
    outer loop
      vertex 59 14.625 11.2
      vertex 59 15.125 10.5
      vertex 59 14.625 10.5
    endloop
  endfacet
  facet normal -1 0 0
    outer loop
      vertex 59 15.125 10.5
      vertex 59 14.625 11.2
      vertex 59 19 11.2
    endloop
  endfacet
  facet normal -1 0 0
    outer loop
      vertex 59 -15.125 10.5
      vertex 59 -14.625 11.2
      vertex 59 -14.625 10.5
    endloop
  endfacet
  facet normal -1 0 0
    outer loop
      vertex 59 -15.125 10.5
      vertex 59 -19 11.2
      vertex 59 -14.625 11.2
    endloop
  endfacet
  facet normal -1 0 0
    outer loop
      vertex 59 -15.125 1.5
      vertex 59 -19 11.2
      vertex 59 -15.125 10.5
    endloop
  endfacet
  facet normal 0 0 1
    outer loop
      vertex 69 -14.625 11.2
      vertex 65.8889 -17.4936 11.2
      vertex 69 -19 11.2
    endloop
  endfacet
  facet normal 0 0 1
    outer loop
      vertex 69 -14.625 11.2
      vertex 65.5148 -15.8545 11.2
      vertex 65.8889 -17.4936 11.2
    endloop
  endfacet
  facet normal 0 0 1
    outer loop
      vertex 69 -14.625 11.2
      vertex 64 -15.125 11.2
      vertex 65.5148 -15.8545 11.2
    endloop
  endfacet
  facet normal 0 0 1
    outer loop
      vertex 62.4852 -15.8545 11.2
      vertex 59 -14.625 11.2
      vertex 62.1111 -17.4936 11.2
    endloop
  endfacet
  facet normal 0 0 1
    outer loop
      vertex 64 -15.125 11.2
      vertex 59 -14.625 11.2
      vertex 62.4852 -15.8545 11.2
    endloop
  endfacet
  facet normal -0 0 1
    outer loop
      vertex 59 -14.625 11.2
      vertex 64 -15.125 11.2
      vertex 69 -14.625 11.2
    endloop
  endfacet
  facet normal -0 0 1
    outer loop
      vertex 64.8407 -18.8081 11.2
      vertex 69 -19 11.2
      vertex 65.8889 -17.4936 11.2
    endloop
  endfacet
  facet normal 0 0 1
    outer loop
      vertex 63.1594 -18.8081 11.2
      vertex 69 -19 11.2
      vertex 64.8407 -18.8081 11.2
    endloop
  endfacet
  facet normal 0 0 1
    outer loop
      vertex 59 -19 11.2
      vertex 62.1111 -17.4936 11.2
      vertex 59 -14.625 11.2
    endloop
  endfacet
  facet normal 0 0 1
    outer loop
      vertex 63.1594 -18.8081 11.2
      vertex 59 -19 11.2
      vertex 69 -19 11.2
    endloop
  endfacet
  facet normal 0 0 1
    outer loop
      vertex 62.1111 -17.4936 11.2
      vertex 59 -19 11.2
      vertex 63.1594 -18.8081 11.2
    endloop
  endfacet
  facet normal 0 1 -0
    outer loop
      vertex 69 -14.625 10.5
      vertex 59 -14.625 11.2
      vertex 69 -14.625 11.2
    endloop
  endfacet
  facet normal 0 1 0
    outer loop
      vertex 59 -14.625 11.2
      vertex 69 -14.625 10.5
      vertex 59 -14.625 10.5
    endloop
  endfacet
  facet normal -0.433884 0.900969 0
    outer loop
      vertex 64 -15.125 11.2
      vertex 62.4852 -15.8545 12.7
      vertex 64 -15.125 12.7
    endloop
  endfacet
  facet normal -0.433884 0.900969 0
    outer loop
      vertex 62.4852 -15.8545 12.7
      vertex 64 -15.125 11.2
      vertex 62.4852 -15.8545 11.2
    endloop
  endfacet
  facet normal -1.13445e-006 -1 0
    outer loop
      vertex 63.1594 -18.8081 11.2
      vertex 64.8407 -18.8081 12.7
      vertex 63.1594 -18.8081 12.7
    endloop
  endfacet
  facet normal -1.13445e-006 -1 -0
    outer loop
      vertex 64.8407 -18.8081 12.7
      vertex 63.1594 -18.8081 11.2
      vertex 64.8407 -18.8081 11.2
    endloop
  endfacet
  facet normal -0.974928 0.222522 0
    outer loop
      vertex 62.1111 -17.4936 11.2
      vertex 62.4852 -15.8545 12.7
      vertex 62.4852 -15.8545 11.2
    endloop
  endfacet
  facet normal -0.974928 0.222522 0
    outer loop
      vertex 62.4852 -15.8545 12.7
      vertex 62.1111 -17.4936 11.2
      vertex 62.1111 -17.4936 12.7
    endloop
  endfacet
  facet normal 0 0 1
    outer loop
      vertex 65.5148 -15.8545 12.7
      vertex 64.8407 -18.8081 12.7
      vertex 65.8889 -17.4936 12.7
    endloop
  endfacet
  facet normal 0 0 1
    outer loop
      vertex 64 -15.125 12.7
      vertex 64.8407 -18.8081 12.7
      vertex 65.5148 -15.8545 12.7
    endloop
  endfacet
  facet normal 0 0 1
    outer loop
      vertex 64 -15.125 12.7
      vertex 63.1594 -18.8081 12.7
      vertex 64.8407 -18.8081 12.7
    endloop
  endfacet
  facet normal -0 0 1
    outer loop
      vertex 62.4852 -15.8545 12.7
      vertex 63.1594 -18.8081 12.7
      vertex 64 -15.125 12.7
    endloop
  endfacet
  facet normal 0 0 1
    outer loop
      vertex 63.1594 -18.8081 12.7
      vertex 62.4852 -15.8545 12.7
      vertex 62.1111 -17.4936 12.7
    endloop
  endfacet
  facet normal -0.781831 -0.623491 0
    outer loop
      vertex 63.1594 -18.8081 11.2
      vertex 62.1111 -17.4936 12.7
      vertex 62.1111 -17.4936 11.2
    endloop
  endfacet
  facet normal -0.781831 -0.623491 0
    outer loop
      vertex 62.1111 -17.4936 12.7
      vertex 63.1594 -18.8081 11.2
      vertex 63.1594 -18.8081 12.7
    endloop
  endfacet
  facet normal 0.433884 0.900969 -0
    outer loop
      vertex 65.5148 -15.8545 11.2
      vertex 64 -15.125 12.7
      vertex 65.5148 -15.8545 12.7
    endloop
  endfacet
  facet normal 0.433884 0.900969 0
    outer loop
      vertex 64 -15.125 12.7
      vertex 65.5148 -15.8545 11.2
      vertex 64 -15.125 11.2
    endloop
  endfacet
  facet normal 0.781832 -0.623489 0
    outer loop
      vertex 64.8407 -18.8081 12.7
      vertex 65.8889 -17.4936 11.2
      vertex 65.8889 -17.4936 12.7
    endloop
  endfacet
  facet normal 0.781832 -0.623489 0
    outer loop
      vertex 65.8889 -17.4936 11.2
      vertex 64.8407 -18.8081 12.7
      vertex 64.8407 -18.8081 11.2
    endloop
  endfacet
  facet normal 0.974928 0.22252 0
    outer loop
      vertex 65.8889 -17.4936 12.7
      vertex 65.5148 -15.8545 11.2
      vertex 65.5148 -15.8545 12.7
    endloop
  endfacet
  facet normal 0.974928 0.22252 0
    outer loop
      vertex 65.5148 -15.8545 11.2
      vertex 65.8889 -17.4936 12.7
      vertex 65.8889 -17.4936 11.2
    endloop
  endfacet
  facet normal 0.382683 0 -0.92388
    outer loop
      vertex 62.2322 -19 6.76777
      vertex 64 -18.25 7.5
      vertex 64 -19 7.5
    endloop
  endfacet
  facet normal 0.382683 0 -0.92388
    outer loop
      vertex 64 -18.25 7.5
      vertex 62.2322 -19 6.76777
      vertex 62.2322 -18.25 6.76777
    endloop
  endfacet
  facet normal 0.92388 0 -0.382683
    outer loop
      vertex 62.2322 -19 6.76777
      vertex 61.5 -18.25 5
      vertex 62.2322 -18.25 6.76777
    endloop
  endfacet
  facet normal 0.92388 0 -0.382683
    outer loop
      vertex 61.5 -18.25 5
      vertex 62.2322 -19 6.76777
      vertex 61.5 -19 5
    endloop
  endfacet
  facet normal 0.92388 -0 0.382682
    outer loop
      vertex 61.5 -19 5
      vertex 62.2322 -18.25 3.23223
      vertex 61.5 -18.25 5
    endloop
  endfacet
  facet normal 0.92388 0 0.382682
    outer loop
      vertex 62.2322 -18.25 3.23223
      vertex 61.5 -19 5
      vertex 62.2322 -19 3.23223
    endloop
  endfacet
  facet normal -0.923879 -2.43305e-007 -0.382686
    outer loop
      vertex 66.1339 -19 5.88388
      vertex 66.5 -18.25 5
      vertex 66.5 -19 5
    endloop
  endfacet
  facet normal -0.92388 4.45579e-006 -0.382682
    outer loop
      vertex 66.5 -18.25 5
      vertex 66.1339 -19 5.88388
      vertex 65.7678 -18.25 6.76777
    endloop
  endfacet
  facet normal -0.382683 0 0.92388
    outer loop
      vertex 64 -18.25 2.5
      vertex 65.7678 -19 3.23223
      vertex 65.7678 -18.25 3.23223
    endloop
  endfacet
  facet normal -0.382683 0 0.92388
    outer loop
      vertex 65.7678 -19 3.23223
      vertex 64 -18.25 2.5
      vertex 64 -19 2.5
    endloop
  endfacet
  facet normal 0 -1 0
    outer loop
      vertex 62.2322 -18.25 6.76777
      vertex 65.7678 -18.25 6.76777
      vertex 64 -18.25 7.5
    endloop
  endfacet
  facet normal 0 -1 0
    outer loop
      vertex 61.5 -18.25 5
      vertex 65.7678 -18.25 6.76777
      vertex 62.2322 -18.25 6.76777
    endloop
  endfacet
  facet normal 0 -1 -0
    outer loop
      vertex 65.7678 -18.25 6.76777
      vertex 61.5 -18.25 5
      vertex 66.5 -18.25 5
    endloop
  endfacet
  facet normal -0.382683 0 -0.92388
    outer loop
      vertex 64 -19 7.5
      vertex 65.7678 -18.25 6.76777
      vertex 65.7678 -19 6.76777
    endloop
  endfacet
  facet normal -0.382683 0 -0.92388
    outer loop
      vertex 65.7678 -18.25 6.76777
      vertex 64 -19 7.5
      vertex 64 -18.25 7.5
    endloop
  endfacet
  facet normal -0.923879 2.43305e-007 0.382686
    outer loop
      vertex 66.5 -19 5
      vertex 66.5 -18.25 5
      vertex 66.1339 -19 4.11612
    endloop
  endfacet
  facet normal -0.923881 0 0.382679
    outer loop
      vertex 66.1339 -19 4.11612
      vertex 65.7678 -18.25 3.23223
      vertex 65.7678 -19 3.23223
    endloop
  endfacet
  facet normal -0.92388 4.6991e-006 0.382683
    outer loop
      vertex 65.7678 -18.25 3.23223
      vertex 66.1339 -19 4.11612
      vertex 66.5 -18.25 5
    endloop
  endfacet
  facet normal 0.382683 0 0.92388
    outer loop
      vertex 62.2322 -18.25 3.23223
      vertex 64 -19 2.5
      vertex 64 -18.25 2.5
    endloop
  endfacet
  facet normal 0.382683 0 0.92388
    outer loop
      vertex 64 -19 2.5
      vertex 62.2322 -18.25 3.23223
      vertex 62.2322 -19 3.23223
    endloop
  endfacet
  facet normal 0 -1 0
    outer loop
      vertex 62.2322 -18.25 3.23223
      vertex 64 -18.25 2.5
      vertex 61.5 -18.25 5
    endloop
  endfacet
  facet normal 0 -1 0
    outer loop
      vertex 64 -18.25 2.5
      vertex 66.5 -18.25 5
      vertex 61.5 -18.25 5
    endloop
  endfacet
  facet normal -0 -1 0
    outer loop
      vertex 65.7678 -18.25 3.23223
      vertex 66.5 -18.25 5
      vertex 64 -18.25 2.5
    endloop
  endfacet
  facet normal -0.923881 -0 -0.382679
    outer loop
      vertex 65.7678 -18.25 6.76777
      vertex 66.1339 -19 5.88388
      vertex 65.7678 -19 6.76777
    endloop
  endfacet
  facet normal 0 1 0
    outer loop
      vertex 69 19 11.2
      vertex 64 19 7.5
      vertex 59 19 11.2
    endloop
  endfacet
  facet normal 0 1 0
    outer loop
      vertex 69 19 11.2
      vertex 65.7678 19 6.76777
      vertex 64 19 7.5
    endloop
  endfacet
  facet normal 0 1 0
    outer loop
      vertex 69 19 11.2
      vertex 66.1339 19 5.88388
      vertex 65.7678 19 6.76777
    endloop
  endfacet
  facet normal 0 1 0
    outer loop
      vertex 69 19 11.2
      vertex 66.5 19 5
      vertex 66.1339 19 5.88388
    endloop
  endfacet
  facet normal 0 1 0
    outer loop
      vertex 69 19 0
      vertex 66.1339 19 4.11612
      vertex 66.5 19 5
    endloop
  endfacet
  facet normal 0 1 0
    outer loop
      vertex 65.7678 19 3.23223
      vertex 69 19 0
      vertex 64 19 2.5
    endloop
  endfacet
  facet normal 0 1 0
    outer loop
      vertex 66.1339 19 4.11612
      vertex 69 19 0
      vertex 65.7678 19 3.23223
    endloop
  endfacet
  facet normal 0 1 -0
    outer loop
      vertex 69 19 0
      vertex 66.5 19 5
      vertex 69 19 11.2
    endloop
  endfacet
  facet normal 0 1 -0
    outer loop
      vertex 62.2322 19 6.76777
      vertex 59 19 11.2
      vertex 64 19 7.5
    endloop
  endfacet
  facet normal 0 1 -0
    outer loop
      vertex 61.5 19 5
      vertex 59 19 11.2
      vertex 62.2322 19 6.76777
    endloop
  endfacet
  facet normal 0 1 0
    outer loop
      vertex 59 19 0
      vertex 64 19 2.5
      vertex 69 19 0
    endloop
  endfacet
  facet normal 0 1 0
    outer loop
      vertex 61.5 19 5
      vertex 59 19 0
      vertex 59 19 11.2
    endloop
  endfacet
  facet normal 0 1 0
    outer loop
      vertex 62.2322 19 3.23223
      vertex 59 19 0
      vertex 61.5 19 5
    endloop
  endfacet
  facet normal 0 1 0
    outer loop
      vertex 64 19 2.5
      vertex 59 19 0
      vertex 62.2322 19 3.23223
    endloop
  endfacet
  facet normal 0 0 -1
    outer loop
      vertex 59 14.625 10.5
      vertex 69 15.125 10.5
      vertex 69 14.625 10.5
    endloop
  endfacet
  facet normal -0 0 -1
    outer loop
      vertex 69 15.125 10.5
      vertex 59 14.625 10.5
      vertex 59 15.125 10.5
    endloop
  endfacet
  facet normal 0 -1 0
    outer loop
      vertex 59 15.125 1.5
      vertex 69 15.125 10.5
      vertex 59 15.125 10.5
    endloop
  endfacet
  facet normal 0 -1 -0
    outer loop
      vertex 69 15.125 10.5
      vertex 59 15.125 1.5
      vertex 69 15.125 1.5
    endloop
  endfacet
  facet normal 0 0 1
    outer loop
      vertex 69 19 11.2
      vertex 65.8889 17.4936 11.2
      vertex 69 14.625 11.2
    endloop
  endfacet
  facet normal 0 0 1
    outer loop
      vertex 69 19 11.2
      vertex 64.8407 18.8081 11.2
      vertex 65.8889 17.4936 11.2
    endloop
  endfacet
  facet normal 0 0 1
    outer loop
      vertex 69 19 11.2
      vertex 63.1594 18.8081 11.2
      vertex 64.8407 18.8081 11.2
    endloop
  endfacet
  facet normal 0 0 1
    outer loop
      vertex 63.1594 18.8081 11.2
      vertex 59 19 11.2
      vertex 62.1111 17.4936 11.2
    endloop
  endfacet
  facet normal -0 0 1
    outer loop
      vertex 59 19 11.2
      vertex 63.1594 18.8081 11.2
      vertex 69 19 11.2
    endloop
  endfacet
  facet normal -0 0 1
    outer loop
      vertex 65.5148 15.8545 11.2
      vertex 69 14.625 11.2
      vertex 65.8889 17.4936 11.2
    endloop
  endfacet
  facet normal -0 0 1
    outer loop
      vertex 64 15.125 11.2
      vertex 69 14.625 11.2
      vertex 65.5148 15.8545 11.2
    endloop
  endfacet
  facet normal 0 0 1
    outer loop
      vertex 59 14.625 11.2
      vertex 62.1111 17.4936 11.2
      vertex 59 19 11.2
    endloop
  endfacet
  facet normal 0 0 1
    outer loop
      vertex 64 15.125 11.2
      vertex 59 14.625 11.2
      vertex 69 14.625 11.2
    endloop
  endfacet
  facet normal 0 0 1
    outer loop
      vertex 62.4852 15.8545 11.2
      vertex 59 14.625 11.2
      vertex 64 15.125 11.2
    endloop
  endfacet
  facet normal 0 0 1
    outer loop
      vertex 62.1111 17.4936 11.2
      vertex 59 14.625 11.2
      vertex 62.4852 15.8545 11.2
    endloop
  endfacet
  facet normal 0 -1 0
    outer loop
      vertex 59 14.625 10.5
      vertex 69 14.625 11.2
      vertex 59 14.625 11.2
    endloop
  endfacet
  facet normal 0 -1 -0
    outer loop
      vertex 69 14.625 11.2
      vertex 59 14.625 10.5
      vertex 69 14.625 10.5
    endloop
  endfacet
  facet normal -0.433884 -0.900969 0
    outer loop
      vertex 62.4852 15.8545 11.2
      vertex 64 15.125 12.7
      vertex 62.4852 15.8545 12.7
    endloop
  endfacet
  facet normal -0.433884 -0.900969 -0
    outer loop
      vertex 64 15.125 12.7
      vertex 62.4852 15.8545 11.2
      vertex 64 15.125 11.2
    endloop
  endfacet
  facet normal 1.13445e-006 1 -0
    outer loop
      vertex 64.8407 18.8081 11.2
      vertex 63.1594 18.8081 12.7
      vertex 64.8407 18.8081 12.7
    endloop
  endfacet
  facet normal 1.13445e-006 1 0
    outer loop
      vertex 63.1594 18.8081 12.7
      vertex 64.8407 18.8081 11.2
      vertex 63.1594 18.8081 11.2
    endloop
  endfacet
  facet normal -0.974928 -0.222522 0
    outer loop
      vertex 62.4852 15.8545 11.2
      vertex 62.1111 17.4936 12.7
      vertex 62.1111 17.4936 11.2
    endloop
  endfacet
  facet normal -0.974928 -0.222522 0
    outer loop
      vertex 62.1111 17.4936 12.7
      vertex 62.4852 15.8545 11.2
      vertex 62.4852 15.8545 12.7
    endloop
  endfacet
  facet normal 0 0 1
    outer loop
      vertex 64.8407 18.8081 12.7
      vertex 65.5148 15.8545 12.7
      vertex 65.8889 17.4936 12.7
    endloop
  endfacet
  facet normal 0 0 1
    outer loop
      vertex 64.8407 18.8081 12.7
      vertex 64 15.125 12.7
      vertex 65.5148 15.8545 12.7
    endloop
  endfacet
  facet normal 0 0 1
    outer loop
      vertex 63.1594 18.8081 12.7
      vertex 64 15.125 12.7
      vertex 64.8407 18.8081 12.7
    endloop
  endfacet
  facet normal 0 0 1
    outer loop
      vertex 63.1594 18.8081 12.7
      vertex 62.4852 15.8545 12.7
      vertex 64 15.125 12.7
    endloop
  endfacet
  facet normal 0 -0 1
    outer loop
      vertex 62.4852 15.8545 12.7
      vertex 63.1594 18.8081 12.7
      vertex 62.1111 17.4936 12.7
    endloop
  endfacet
  facet normal -0.781831 0.62349 0
    outer loop
      vertex 62.1111 17.4936 11.2
      vertex 63.1594 18.8081 12.7
      vertex 63.1594 18.8081 11.2
    endloop
  endfacet
  facet normal -0.781831 0.62349 0
    outer loop
      vertex 63.1594 18.8081 12.7
      vertex 62.1111 17.4936 11.2
      vertex 62.1111 17.4936 12.7
    endloop
  endfacet
  facet normal 0.433884 -0.900969 0
    outer loop
      vertex 64 15.125 11.2
      vertex 65.5148 15.8545 12.7
      vertex 64 15.125 12.7
    endloop
  endfacet
  facet normal 0.433884 -0.900969 0
    outer loop
      vertex 65.5148 15.8545 12.7
      vertex 64 15.125 11.2
      vertex 65.5148 15.8545 11.2
    endloop
  endfacet
  facet normal 0.781832 0.62349 0
    outer loop
      vertex 65.8889 17.4936 12.7
      vertex 64.8407 18.8081 11.2
      vertex 64.8407 18.8081 12.7
    endloop
  endfacet
  facet normal 0.781832 0.62349 0
    outer loop
      vertex 64.8407 18.8081 11.2
      vertex 65.8889 17.4936 12.7
      vertex 65.8889 17.4936 11.2
    endloop
  endfacet
  facet normal 0.974928 -0.22252 0
    outer loop
      vertex 65.5148 15.8545 12.7
      vertex 65.8889 17.4936 11.2
      vertex 65.8889 17.4936 12.7
    endloop
  endfacet
  facet normal 0.974928 -0.22252 0
    outer loop
      vertex 65.8889 17.4936 11.2
      vertex 65.5148 15.8545 12.7
      vertex 65.5148 15.8545 11.2
    endloop
  endfacet
  facet normal 0.382683 0 -0.92388
    outer loop
      vertex 62.2322 18.25 6.76777
      vertex 64 19 7.5
      vertex 64 18.25 7.5
    endloop
  endfacet
  facet normal 0.382683 0 -0.92388
    outer loop
      vertex 64 19 7.5
      vertex 62.2322 18.25 6.76777
      vertex 62.2322 19 6.76777
    endloop
  endfacet
  facet normal 0.92388 0 -0.382683
    outer loop
      vertex 62.2322 18.25 6.76777
      vertex 61.5 19 5
      vertex 62.2322 19 6.76777
    endloop
  endfacet
  facet normal 0.92388 0 -0.382683
    outer loop
      vertex 61.5 19 5
      vertex 62.2322 18.25 6.76777
      vertex 61.5 18.25 5
    endloop
  endfacet
  facet normal 0.92388 -0 0.382682
    outer loop
      vertex 61.5 18.25 5
      vertex 62.2322 19 3.23223
      vertex 61.5 19 5
    endloop
  endfacet
  facet normal 0.92388 0 0.382682
    outer loop
      vertex 62.2322 19 3.23223
      vertex 61.5 18.25 5
      vertex 62.2322 18.25 3.23223
    endloop
  endfacet
  facet normal -0.923879 2.43305e-007 -0.382686
    outer loop
      vertex 66.5 18.25 5
      vertex 66.1339 19 5.88388
      vertex 66.5 19 5
    endloop
  endfacet
  facet normal -0.92388 -4.45579e-006 -0.382682
    outer loop
      vertex 66.1339 19 5.88388
      vertex 66.5 18.25 5
      vertex 65.7678 18.25 6.76777
    endloop
  endfacet
  facet normal -0.382683 0 0.92388
    outer loop
      vertex 64 19 2.5
      vertex 65.7678 18.25 3.23223
      vertex 65.7678 19 3.23223
    endloop
  endfacet
  facet normal -0.382683 0 0.92388
    outer loop
      vertex 65.7678 18.25 3.23223
      vertex 64 19 2.5
      vertex 64 18.25 2.5
    endloop
  endfacet
  facet normal 0 1 0
    outer loop
      vertex 65.7678 18.25 6.76777
      vertex 62.2322 18.25 6.76777
      vertex 64 18.25 7.5
    endloop
  endfacet
  facet normal 0 1 0
    outer loop
      vertex 65.7678 18.25 6.76777
      vertex 61.5 18.25 5
      vertex 62.2322 18.25 6.76777
    endloop
  endfacet
  facet normal -0 1 0
    outer loop
      vertex 61.5 18.25 5
      vertex 65.7678 18.25 6.76777
      vertex 66.5 18.25 5
    endloop
  endfacet
  facet normal -0.382683 0 -0.92388
    outer loop
      vertex 64 18.25 7.5
      vertex 65.7678 19 6.76777
      vertex 65.7678 18.25 6.76777
    endloop
  endfacet
  facet normal -0.382683 0 -0.92388
    outer loop
      vertex 65.7678 19 6.76777
      vertex 64 18.25 7.5
      vertex 64 19 7.5
    endloop
  endfacet
  facet normal -0.923879 -2.43305e-007 0.382686
    outer loop
      vertex 66.5 19 5
      vertex 66.1339 19 4.11612
      vertex 66.5 18.25 5
    endloop
  endfacet
  facet normal -0.923881 0 0.382679
    outer loop
      vertex 65.7678 18.25 3.23223
      vertex 66.1339 19 4.11612
      vertex 65.7678 19 3.23223
    endloop
  endfacet
  facet normal -0.92388 -4.6991e-006 0.382683
    outer loop
      vertex 66.1339 19 4.11612
      vertex 65.7678 18.25 3.23223
      vertex 66.5 18.25 5
    endloop
  endfacet
  facet normal 0.382683 0 0.92388
    outer loop
      vertex 62.2322 19 3.23223
      vertex 64 18.25 2.5
      vertex 64 19 2.5
    endloop
  endfacet
  facet normal 0.382683 0 0.92388
    outer loop
      vertex 64 18.25 2.5
      vertex 62.2322 19 3.23223
      vertex 62.2322 18.25 3.23223
    endloop
  endfacet
  facet normal -0 1 -0
    outer loop
      vertex 62.2322 18.25 3.23223
      vertex 61.5 18.25 5
      vertex 64 18.25 2.5
    endloop
  endfacet
  facet normal 0 1 -0
    outer loop
      vertex 64 18.25 2.5
      vertex 61.5 18.25 5
      vertex 66.5 18.25 5
    endloop
  endfacet
  facet normal 0 1 -0
    outer loop
      vertex 65.7678 18.25 3.23223
      vertex 64 18.25 2.5
      vertex 66.5 18.25 5
    endloop
  endfacet
  facet normal -0.923881 0 -0.382679
    outer loop
      vertex 66.1339 19 5.88388
      vertex 65.7678 18.25 6.76777
      vertex 65.7678 19 6.76777
    endloop
  endfacet
  facet normal -0 0 1
    outer loop
      vertex 59 15.125 1.5
      vertex 69 -15.125 1.5
      vertex 69 15.125 1.5
    endloop
  endfacet
  facet normal 0 0 1
    outer loop
      vertex 69 -15.125 1.5
      vertex 59 15.125 1.5
      vertex 59 -15.125 1.5
    endloop
  endfacet
endsolid OpenSCAD_Model
