solid OpenSCAD_Model
  facet normal 0 0 -1
    outer loop
      vertex -8.73242 -15.125 0
      vertex -17.4648 0 0
      vertex -8.73242 15.125 0
    endloop
  endfacet
  facet normal 0 0 -1
    outer loop
      vertex 8.73242 -15.125 0
      vertex 8.73242 15.125 0
      vertex 17.4648 0 0
    endloop
  endfacet
  facet normal 0 0 -1
    outer loop
      vertex -8.73242 -15.125 0
      vertex -8.73242 15.125 0
      vertex 8.73242 -15.125 0
    endloop
  endfacet
  facet normal 0 0 -1
    outer loop
      vertex 8.73242 -15.125 0
      vertex -8.73242 15.125 0
      vertex 8.73242 15.125 0
    endloop
  endfacet
  facet normal 0 0 -1
    outer loop
      vertex 8.73242 15.125 0
      vertex -8.73242 15.125 0
      vertex -8.73241 15.125 0
    endloop
  endfacet
  facet normal 0 0 1
    outer loop
      vertex -8.73242 15.125 6
      vertex -17.4648 0 6
      vertex -8.73242 -15.125 6
    endloop
  endfacet
  facet normal 0 0 1
    outer loop
      vertex 17.4648 0 6
      vertex 8.73242 15.125 6
      vertex 8.73242 -15.125 6
    endloop
  endfacet
  facet normal 0 0 1
    outer loop
      vertex 8.73242 -15.125 6
      vertex -8.73242 15.125 6
      vertex -8.73242 -15.125 6
    endloop
  endfacet
  facet normal 0 0 1
    outer loop
      vertex 8.73242 15.125 6
      vertex -8.73242 15.125 6
      vertex 8.73242 -15.125 6
    endloop
  endfacet
  facet normal 0 0 1
    outer loop
      vertex -8.73241 15.125 6
      vertex -8.73242 15.125 6
      vertex 8.73242 15.125 6
    endloop
  endfacet
  facet normal -0.866025 -0.5 0
    outer loop
      vertex -8.73242 -15.125 0
      vertex -17.4648 0 6
      vertex -17.4648 0 0
    endloop
  endfacet
  facet normal -0.866025 -0.5 0
    outer loop
      vertex -8.73242 -15.125 0
      vertex -8.73242 -15.125 6
      vertex -17.4648 0 6
    endloop
  endfacet
  facet normal 0 -1 0
    outer loop
      vertex 8.73242 -15.125 0
      vertex -8.73242 -15.125 6
      vertex -8.73242 -15.125 0
    endloop
  endfacet
  facet normal 0 -1 0
    outer loop
      vertex 8.73242 -15.125 0
      vertex 8.73242 -15.125 6
      vertex -8.73242 -15.125 6
    endloop
  endfacet
  facet normal 0.866025 -0.5 0
    outer loop
      vertex 17.4648 0 0
      vertex 8.73242 -15.125 6
      vertex 8.73242 -15.125 0
    endloop
  endfacet
  facet normal 0.866025 -0.5 0
    outer loop
      vertex 17.4648 0 0
      vertex 17.4648 0 6
      vertex 8.73242 -15.125 6
    endloop
  endfacet
  facet normal 0.866025 0.5 0
    outer loop
      vertex 8.73242 15.125 0
      vertex 17.4648 0 6
      vertex 17.4648 0 0
    endloop
  endfacet
  facet normal 0.866025 0.5 -0
    outer loop
      vertex 8.73242 15.125 0
      vertex 8.73242 15.125 6
      vertex 17.4648 0 6
    endloop
  endfacet
  facet normal 8.73687e-007 1 0
    outer loop
      vertex -8.73241 15.125 0
      vertex 8.73242 15.125 6
      vertex 8.73242 15.125 0
    endloop
  endfacet
  facet normal 8.73687e-007 1 -0
    outer loop
      vertex -8.73241 15.125 0
      vertex -8.73241 15.125 6
      vertex 8.73242 15.125 6
    endloop
  endfacet
  facet normal -0.707107 0.707107 0
    outer loop
      vertex -8.73242 15.125 0
      vertex -8.73241 15.125 6
      vertex -8.73241 15.125 0
    endloop
  endfacet
  facet normal -0.707107 0.707107 0
    outer loop
      vertex -8.73242 15.125 0
      vertex -8.73242 15.125 6
      vertex -8.73241 15.125 6
    endloop
  endfacet
  facet normal -0.866025 0.5 0
    outer loop
      vertex -17.4648 0 0
      vertex -8.73242 15.125 6
      vertex -8.73242 15.125 0
    endloop
  endfacet
  facet normal -0.866025 0.5 0
    outer loop
      vertex -17.4648 0 0
      vertex -17.4648 0 6
      vertex -8.73242 15.125 6
    endloop
  endfacet
endsolid OpenSCAD_Model
